<svg width="30" height="20" viewBox="0 0 30 20" fill="none" xmlns="http://www.w3.org/2000/svg">
<g clip-path="url(#clip0_162_16068)">
<path d="M0 0H30V20H0V0Z" fill="#1E509C"/>
<path d="M30 10.2978V4.75391L0 19.9995L30 10.2978Z" fill="white"/>
<path d="M30 0V4.75439L0 20L30 0Z" fill="#F18D36"/>
<path d="M7.41187 5.80632L6.95573 2.64258L6.50544 5.80632L5.28906 4.42036L5.91479 6.26831L4.07269 5.64258L5.45281 6.85895L2.28906 7.30925L5.45281 7.75954L4.07269 8.97591L5.91479 8.35018L5.28906 10.1981L6.50544 8.81217L6.95573 11.9759L7.41187 8.81217L8.6224 10.1981L8.00251 8.35018L9.84462 8.97591L8.4645 7.75954L11.6224 7.30925L8.4645 6.85895L9.84462 5.64258L8.00251 6.26831L8.6224 4.42036L7.41187 5.80632Z" fill="white"/>
</g>
<defs>
<clipPath id="clip0_162_16068">
<rect width="30" height="20" rx="4" fill="white"/>
</clipPath>
</defs>
</svg>
