<svg width="30" height="20" viewBox="0 0 30 20" fill="none" xmlns="http://www.w3.org/2000/svg">
<g clip-path="url(#clip0_162_16699)">
<path d="M0 0H30V20H0V0Z" fill="#003893"/>
<path d="M0 10.6543H30V13.0754H0V10.6543Z" fill="#CF2027"/>
<path d="M0 8.23438H30V10.6554H0V8.23438ZM0 13.0765H30V15.4975H0V13.0765Z" fill="white"/>
<path d="M8.80195 4.0918L9.20545 5.32571H10.5037L9.45107 6.0918L9.85458 7.32572L8.80195 6.55963L7.75516 7.32572L8.15282 6.0918L7.10604 5.32571H8.40429L8.80195 4.0918ZM8.80195 16.355L9.20545 17.5889H10.5037L9.45107 18.3491L9.85458 19.5889L8.80195 18.8228L7.75516 19.5889L8.15282 18.3491L7.10604 17.5889H8.40429L8.80195 16.355ZM3.09434 12.2088L3.49785 13.4427H4.7961L3.74347 14.2029L4.14698 15.4427L3.09434 14.6766L2.04756 15.4427L2.44522 14.2029L1.39844 13.4427H2.69668L3.09434 12.2088ZM5.27563 5.31987L5.67914 6.55379H6.97738L5.92475 7.31402L6.32826 8.55379L5.27563 7.7877L4.22885 8.55379L4.62651 7.31402L3.57388 6.55379H4.87797L5.27563 5.31987ZM1.39844 9.47191H2.69668L3.09434 8.238L3.49785 9.47191H4.7961L3.74347 10.238L4.14698 11.4719L3.09434 10.7117L2.04756 11.4719L2.44522 10.238L1.39844 9.47191ZM4.22885 18.1795L4.62651 16.9456L3.57388 16.1854H4.87797L5.27563 14.9456L5.67914 16.1854H6.97738L5.92475 16.9456L6.32826 18.1795L5.27563 17.4193L4.22885 18.1795ZM14.5095 12.2088L14.106 13.4427H12.8078L13.8604 14.2029L13.4569 15.4427L14.5095 14.6766L15.5622 15.4427L15.1587 14.2029L16.2113 13.4427H14.9131L14.5095 12.2088ZM12.3283 5.31987L11.9306 6.55379H10.6324L11.6791 7.31402L11.2815 8.55379L12.3283 7.7877L13.3809 8.55379L12.9774 7.31402L14.03 6.55379H12.7318L12.3283 5.31987ZM16.2113 9.47191H14.9131L14.5095 8.238L14.106 9.47191H12.8078L13.8604 10.238L13.4569 11.4719L14.5095 10.7117L15.5622 11.4719L15.1587 10.238L16.2113 9.47191ZM13.3809 18.1795L12.9774 16.9456L14.03 16.1854H12.7318L12.3283 14.9456L11.9306 16.1854H10.6324L11.6791 16.9456L11.2815 18.1795L12.3283 17.4193L13.3809 18.1795Z" fill="#F7D116"/>
<path fill-rule="evenodd" clip-rule="evenodd" d="M8.79801 3.99805L9.22293 5.29742H10.5898L9.48174 6.10387L9.90674 7.4035L8.79826 6.59678L7.69595 7.4035L8.11479 6.10387L7.01285 5.29742H8.37926L8.79801 3.99805ZM8.79842 4.18744L8.42185 5.3559H7.19177L8.1834 6.08161L7.80692 7.24982L8.79817 6.52438L9.79496 7.24982L9.41294 6.08161L10.4101 5.3559H9.18052L8.79842 4.18744ZM5.2717 5.22612L5.69661 6.52549H7.06408L5.95542 7.32619L6.38025 8.63144L5.27195 7.82485L4.1698 8.63144L4.58845 7.32624L3.47972 6.52549H4.85294L5.2717 5.22612ZM12.3243 5.22612L12.7492 6.52549H14.1167L13.0081 7.32619L13.4329 8.63144L12.3246 7.82485L11.2224 8.63144L11.6411 7.32619L10.5386 6.52549H11.9056L12.3243 5.22612ZM5.2721 5.41551L4.89554 6.58397H3.66057L4.6571 7.30369L4.28043 8.47802L5.27185 7.75245L6.26881 8.47802L5.88662 7.30374L6.88323 6.58397H5.65421L5.2721 5.41551ZM12.3247 5.41551L11.9482 6.58397H10.7186L11.7097 7.30374L11.3331 8.47802L12.3245 7.75245L13.3214 8.47802L12.9393 7.30374L13.9359 6.58397H12.7068L12.3247 5.41551ZM3.09041 8.14425L3.51532 9.44362H4.88223L3.77414 10.2501L4.19896 11.5492L3.09066 10.7487L1.98852 11.5492L2.40718 10.2501L1.30524 9.44362H2.67166L3.09041 8.14425ZM14.5058 8.14487L14.9305 9.44362H16.2974L15.1893 10.2501L15.6142 11.5492L14.5058 10.7487L13.3975 11.5492L13.8223 10.2501L12.7142 9.44362H14.0811L14.5058 8.14487ZM3.09082 8.33363L2.71425 9.5021H1.48417L2.4758 10.2278L2.09914 11.3965L3.09057 10.6765L4.08753 11.3965L3.70533 10.2278L4.7025 9.5021H3.47292L3.09082 8.33363ZM14.5058 8.33301L14.1235 9.5021H12.8939L13.8911 10.2278L13.5089 11.3965L14.5058 10.6766L15.5027 11.3965L15.1205 10.2278L16.1177 9.5021H14.8881L14.5058 8.33301ZM3.09041 12.115L3.51532 13.4144H4.88279L3.77414 14.2151L4.19896 15.5203L3.09066 14.7137L1.98852 15.5203L2.40718 14.2151L1.30469 13.4144H2.67166L3.09041 12.115ZM14.5058 12.1156L14.9305 13.4144H16.298L15.1893 14.2151L15.6142 15.5203L14.5058 14.7137L13.3975 15.5203L13.8223 14.2151L12.7136 13.4144H14.0811L14.5058 12.1156ZM3.09082 12.3044L2.71425 13.4729H1.48473L2.4758 14.1926L2.09914 15.3669L3.09057 14.6413L4.08753 15.3669L3.70533 14.1926L4.70194 13.4729H3.47292L3.09082 12.3044ZM14.5058 12.3038L14.1235 13.4729H12.8945L13.8911 14.1926L13.5089 15.3669L14.5058 14.6414L15.5027 15.3669L15.1205 14.1926L16.1171 13.4729H14.8881L14.5058 12.3038ZM5.2717 14.8514L5.69664 16.1571H7.06408L5.95545 16.9577L6.38025 18.2568L5.27195 17.4563L4.1698 18.2568L4.58843 16.9578L3.47972 16.1571H4.85291L5.2717 14.8514ZM12.3243 14.8514L12.7493 16.1571H14.1167L13.0081 16.9577L13.4329 18.2568L12.3246 17.4563L11.2224 18.2568L11.6411 16.9577L10.5386 16.1571H11.9055L12.3243 14.8514ZM5.2721 15.0416L4.89557 16.2155H3.66057L4.65713 16.9353L4.28043 18.1042L5.27185 17.3841L6.26881 18.1042L5.88659 16.9353L6.88323 16.2155H5.65418L5.2721 15.0416ZM12.3247 15.0416L11.9482 16.2155H10.7186L11.7097 16.9353L11.3331 18.1042L12.3245 17.3841L13.3214 18.1042L12.9392 16.9353L13.9359 16.2155H12.7068L12.3247 15.0416ZM8.79801 16.2612L9.22293 17.5606H10.5904L9.48174 18.3613L9.90656 19.6665L8.79826 18.8599L7.69612 19.6665L8.11479 18.3613L7.01229 17.5606H8.37926L8.79801 16.2612ZM8.79842 16.4506L8.42185 17.6191H7.19233L8.1834 18.3388L7.80675 19.5131L8.79817 18.7875L9.79513 19.5131L9.41294 18.3388L10.4095 17.6191H9.18052L8.79842 16.4506Z" fill="black"/>
</g>
<defs>
<clipPath id="clip0_162_16699">
<rect width="30" height="20" rx="4" fill="white"/>
</clipPath>
</defs>
</svg>
