<svg width="30" height="20" viewBox="0 0 30 20" fill="none" xmlns="http://www.w3.org/2000/svg">
<g clip-path="url(#clip0_162_16622)">
<path d="M0 0H30.0029V20H0V0Z" fill="#FFDA44"/>
<path d="M0 10.0039H30.0029V15.0024H0V10.0039Z" fill="#0052B4"/>
<path d="M0 15.002H30.0029V20.0005H0V15.002Z" fill="#D80027"/>
<path d="M15.0039 13.4824C16.9261 13.4824 18.4844 11.9242 18.4844 10.002C18.4844 8.07974 16.9261 6.52148 15.0039 6.52148C13.0817 6.52148 11.5234 8.07974 11.5234 10.002C11.5234 11.9242 13.0817 13.4824 15.0039 13.4824Z" fill="#FFDA44"/>
<path d="M21.638 4.68211C21.638 4.68211 20.0441 3.87343 19.6515 3.74452C19.2589 3.6156 16.7743 2.971 16.7743 3.33432C16.7743 3.93789 15.9832 4.03751 15.866 4.03751C15.7488 4.03751 15.7488 3.72694 14.9987 3.72694C14.2486 3.72694 14.1959 4.00821 14.0728 4.00821C13.9439 4.00821 13.2231 3.94961 13.2231 3.33432C13.2231 3.0296 10.7092 3.56872 10.3459 3.74452C9.98844 3.92617 8.35938 4.68211 8.35938 4.68211C8.35938 4.68211 11.0432 4.84033 11.5179 5.04542C11.9925 5.25052 14.0845 6.01231 14.0845 6.01231L13.9205 6.79169H16.1355L15.9128 6.01231C15.9128 6.01231 17.9697 5.2681 18.4795 5.04542C18.9893 4.82275 21.638 4.68211 21.638 4.68211Z" fill="#4C1F00"/>
<path d="M12.7578 10.0605C12.7578 11.2969 13.7656 12.3047 15.002 12.3047C16.2383 12.3047 17.2461 11.2969 17.2461 10.0605V9.38672H12.7637V10.0605H12.7578Z" fill="#57BA17"/>
<path d="M15.002 6.47461C13.7656 6.47461 12.7578 7.48242 12.7578 8.71875V9.39258H17.2402V8.71875C17.2461 7.48242 16.2383 6.47461 15.002 6.47461Z" fill="#338AF3"/>
</g>
<defs>
<clipPath id="clip0_162_16622">
<rect width="30.0029" height="20" rx="4" fill="white"/>
</clipPath>
</defs>
</svg>
