<svg width="30" height="20" viewBox="0 0 30 20" fill="none" xmlns="http://www.w3.org/2000/svg">
<g clip-path="url(#clip0_162_15706)">
<path d="M0.0078125 0H30.0078V19.9996H0.0078125V0Z" fill="white"/>
<path d="M0.0078125 0H30.0078V9.99978H0.0078125V0Z" fill="#D80027"/>
<path d="M4.89805 5.00051C4.89805 3.54357 5.92203 2.32646 7.28938 2.02781C7.07517 1.98085 6.85652 1.95711 6.63723 1.95703C4.95629 1.95703 3.59375 3.31957 3.59375 5.00045C3.59375 6.68133 4.95635 8.04393 6.63723 8.04393C6.86117 8.04393 7.0792 8.01902 7.28938 7.97315C5.92203 7.67461 4.89805 6.4575 4.89805 5.00051ZM8.81111 2.17447L9.02697 2.83875H9.72547L9.16033 3.24932L9.37619 3.91359L8.81111 3.50309L8.24598 3.91359L8.46189 3.24932L7.89676 2.83875H8.59525L8.81111 2.17447Z" fill="white"/>
<path d="M7.11748 3.47852L7.33328 4.14279H8.03178L7.46664 4.55336L7.6825 5.21764L7.11748 4.80713L6.55234 5.21764L6.76826 4.55336L6.20312 4.14279H6.90162L7.11748 3.47852ZM10.5062 3.47852L10.7221 4.14279H11.4205L10.8554 4.55336L11.0713 5.21764L10.5062 4.80713L9.94111 5.21764L10.157 4.55336L9.5919 4.14279H10.2904L10.5062 3.47852ZM9.85398 5.43502L10.0698 6.0993H10.7683L10.2033 6.50986L10.4191 7.17414L9.85398 6.76363L9.28897 7.17414L9.50482 6.50986L8.93975 6.0993H9.63818L9.85398 5.43502ZM7.76963 5.43502L7.98543 6.0993H8.68393L8.11885 6.50986L8.33471 7.17414L7.76963 6.76363L7.20455 7.17414L7.42041 6.50986L6.85533 6.0993H7.55377L7.76963 5.43502Z" fill="white"/>
</g>
<defs>
<clipPath id="clip0_162_15706">
<rect x="0.0078125" width="30" height="20" rx="4" fill="white"/>
</clipPath>
</defs>
</svg>
