<svg width="30" height="20" viewBox="0 0 30 20" fill="none" xmlns="http://www.w3.org/2000/svg">
<g clip-path="url(#clip0_162_16983)">
<path d="M0.0078125 0H30.0078V20H0.0078125V0Z" fill="#00318B"/>
<path d="M26.603 15.5188C27.0673 14.8796 27.3773 14.0995 27.3773 13.155V6.13339C26.7702 6.5903 26.0307 6.83686 25.2709 6.83573C24.1223 6.83573 23.103 6.28427 22.4621 5.43164C21.8217 6.28427 20.8018 6.83573 19.6533 6.83573C18.8627 6.83573 18.1334 6.57433 17.5469 6.13398V13.155C17.5469 14.1001 17.8568 14.8802 18.3211 15.5188H26.603Z" fill="white"/>
<path d="M18.1484 15.2617C19.4595 17.3658 22.4625 18.0699 22.4625 18.0699C22.4625 18.0699 25.4654 17.3658 26.7765 15.2617H18.1484Z" fill="#8DCCFF"/>
<path d="M23.2077 10.0716C23.2264 10.1547 23.7176 10.6664 24.2346 11.25C24.3159 11.3418 23.7235 11.9886 23.8305 11.9862C24.1083 11.9792 24.9574 10.9769 24.9615 12.3751C24.9644 13.3073 23.2071 13.9839 23.2071 13.9839H24.2287L24.2667 14.8588C24.2667 14.8588 24.5574 14.0786 24.7106 13.8897C25.1843 13.3067 25.8907 12.1313 26.7334 12.305C27.5761 12.4786 25.9346 11.4909 25.9346 11.4909C25.9346 11.4909 25.6305 10.6026 24.9621 10.4985C24.3737 10.4067 24.1264 10.3517 23.4042 10.0716C23.3059 10.0336 23.1773 9.93595 23.2077 10.0716Z" fill="#D87B00"/>
<path d="M21.0398 11.6196C21.1023 11.5617 21.3006 10.881 21.5479 10.1412C21.5871 10.0249 22.4433 10.2155 22.3871 10.1237C22.2427 9.88627 20.9497 9.65118 22.159 8.94943C22.9655 8.48159 24.4292 9.66697 24.4292 9.66697L23.9193 8.78159L24.6585 8.312C24.6585 8.312 23.8368 8.44943 23.5976 8.41083C22.8561 8.29153 21.4848 8.2658 21.2146 7.44884C20.9444 6.63188 20.9076 8.54767 20.9076 8.54767C20.9076 8.54767 20.29 9.25411 20.5333 9.88568C20.7474 10.4412 20.8234 10.6833 20.9409 11.4488C20.9579 11.5535 20.9374 11.7138 21.0398 11.6196Z" fill="#D87B00"/>
<path d="M23.1465 12.8571C23.0652 12.832 22.3769 13.0027 21.6132 13.1601C21.4927 13.1846 21.2278 12.3484 21.1764 12.4431C21.0436 12.687 21.4898 13.9232 20.2752 13.2296C19.4658 12.7671 19.7553 10.9062 19.7553 10.9062L19.2459 11.7916L18.4688 11.3881C18.4688 11.3881 19.0003 12.0291 19.0869 12.256C19.3559 12.9571 20.0226 14.156 19.4518 14.7992C18.881 15.4431 20.5559 14.5127 20.5559 14.5127C20.5559 14.5127 21.4775 14.6922 21.9009 14.1641C22.274 13.6998 22.4448 13.5127 23.0477 13.0267C23.1313 12.9612 23.2799 12.8986 23.1465 12.8571Z" fill="#D87B00"/>
<path d="M15.0078 0H13.6569L9.36454 2.85965V0H5.62185V2.85965L1.32945 0H0.0078125V1.32749L2.70372 3.12281H0.0078125V6.8655H2.70372L0.0078125 8.66082V10H1.32945L5.62185 7.12281V10H9.36454V7.12281L13.6569 10H15.0078V8.66082L12.2827 6.8655H15.0078V3.12281H12.2827L15.0078 1.32749V0Z" fill="white"/>
<path d="M8.42887 0H6.55752V4.05848H0.0078125V5.92982H6.55752V10H8.42887V5.92982H15.0078V4.05848H8.42887V0Z" fill="#D80027"/>
<path d="M0.0078125 10V9.33919L3.66278 6.86551H4.98442L0.434713 10H0.0078125ZM0.434713 0.00585938L4.98442 3.11697H3.66278L0.0078125 0.649134V0.00585938H0.434713ZM15.0078 0.00585938V0.649134L11.3236 3.12282H10.002L14.5517 0.00585938H15.0078ZM14.5517 10L10.002 6.86551H11.3236L15.0078 9.33919V10H14.5517Z" fill="#D80027"/>
</g>
<defs>
<clipPath id="clip0_162_16983">
<rect x="0.0078125" width="30" height="20" rx="4" fill="white"/>
</clipPath>
</defs>
</svg>
