<svg width="30" height="20" viewBox="0 0 30 20" fill="none" xmlns="http://www.w3.org/2000/svg">
<g clip-path="url(#clip0_162_16963)">
<path d="M0 10H30V20H0V10Z" fill="black"/>
<path d="M0 0H30V10H0V0Z" fill="#D80027"/>
<path d="M19.4612 7.93009L20.4846 7.42716L20.0519 6.31605L18.9583 6.67862L19.4612 7.93009ZM16.7945 4.65523L17.1162 3.55582L15.9992 3.13477L15.5314 4.1874L16.7945 4.65523ZM18.5138 6.01196L19.2273 5.11722L18.3559 4.30436L17.5255 5.09968L18.5138 6.01196ZM19.6483 10.0412L20.7887 9.99441V8.7488L19.4495 8.7605L19.6483 10.0412ZM18.9115 12.2693L20.0109 12.5909L20.4378 11.4798L19.3852 11.012L18.9115 12.2693ZM17.2156 14.164L18.0869 14.9067L18.929 14.0646L18.163 13.2049L17.2156 14.164ZM14.4671 5.52658L15.0402 6.69032L16.3209 6.8833L15.391 7.78974L15.6016 9.07044L14.4554 8.46225L13.3033 9.05874L13.5255 7.77804L12.6016 6.87161L13.8881 6.69032L14.4671 5.52658Z" fill="#FFDA44"/>
<path d="M14.6694 3.58594L14.5115 4.65611C17.032 4.84325 19.0144 6.94851 19.0144 9.51576C19.0144 12.2058 16.8332 14.3637 14.1372 14.393C12.4296 14.4105 11.1372 13.5275 10.2191 12.4222L9.40625 13.1415C10.2834 14.2526 11.7922 15.4748 14.1372 15.4748C17.4296 15.4748 20.0963 12.8082 20.0963 9.51576C20.1022 6.40465 17.7162 3.8491 14.6694 3.58594Z" fill="#FFDA44"/>
<path d="M17.0729 13.0645L16.3828 13.8832C16.3828 13.8832 19.4179 16.158 19.5173 16.2457C19.6167 16.3335 19.8214 16.3627 20.0495 16.0878C20.2659 15.8247 20.2132 15.6142 20.1021 15.5206C19.9852 15.4329 17.0729 13.0645 17.0729 13.0645Z" fill="black"/>
<path d="M12.0522 9.19336C11.6019 9.7957 11.6136 10.5442 12.216 11.0004C12.216 11.0004 20.1224 16.936 20.2218 17.0238C20.3212 17.1115 20.5259 17.1407 20.754 16.8659C20.9703 16.6027 20.9177 16.3922 20.8066 16.2986C20.6955 16.2109 12.0522 9.19336 12.0522 9.19336ZM14.8417 14.9887L15.2686 16.053L16.4089 15.7021L16.1282 14.5852L14.8417 14.9887ZM12.4791 14.7723L12.3622 15.9127L13.5376 16.1232L13.8008 15.0062L12.4791 14.7723ZM10.3914 13.5325L9.78906 14.5033L10.7481 15.2109L11.4791 14.322L10.3914 13.5325Z" fill="#FFDA44"/>
</g>
<defs>
<clipPath id="clip0_162_16963">
<rect width="30" height="20" rx="4" fill="white"/>
</clipPath>
</defs>
</svg>
