<svg width="30" height="20" viewBox="0 0 30 20" fill="none" xmlns="http://www.w3.org/2000/svg">
<g clip-path="url(#clip0_162_15553)">
<path d="M0.0078125 0H28.0078V20H0.0078125V0Z" fill="white"/>
<path d="M0.0078125 0H30.0078V20H0.0078125V0Z" fill="#073AB6"/>
<path d="M0.0078125 0H15.0745V10H0.0078125V0Z" fill="white"/>
<path d="M9.47656 0H14.2766V9.33333H9.47656V0Z" fill="#F44653"/>
<path d="M0.0078125 0H4.80781V9.33333H0.0078125V0Z" fill="#1035BB"/>
<path d="M4.80469 0H9.60469V9.33333H4.80469V0ZM19.338 8H26.0047L25.338 9.33333H23.338V10H24.6714L24.0047 11.3333H23.338V13.3333H22.0047V9.33333H20.0047L19.338 8ZM24.6714 11.3333L26.0047 13.3333H23.338L24.6714 11.3333ZM20.6714 11.3333L22.0047 13.3333H19.338L20.6714 11.3333ZM22.6714 15.3333L21.338 13.3333H24.0047L22.6714 15.3333ZM26.6714 10.6667C26.2714 10.6667 26.0047 10.4 26.0047 10C26.0047 9.6 26.2714 9.33333 26.6714 9.33333C27.0714 9.33333 27.338 9.6 27.338 10C27.338 10.4 27.0714 10.6667 26.6714 10.6667ZM18.6714 10.6667C18.2714 10.6667 18.0047 10.4 18.0047 10C18.0047 9.6 18.2714 9.33333 18.6714 9.33333C19.0714 9.33333 19.338 9.6 19.338 10C19.338 10.4 19.0714 10.6667 18.6714 10.6667ZM20.0047 16C19.6047 16 19.338 15.7333 19.338 15.3333C19.338 14.9333 19.6047 14.6667 20.0047 14.6667C20.4047 14.6667 20.6714 14.9333 20.6714 15.3333C20.6714 15.7333 20.4047 16 20.0047 16ZM25.338 16C24.938 16 24.6714 15.7333 24.6714 15.3333C24.6714 14.9333 24.938 14.6667 25.338 14.6667C25.738 14.6667 26.0047 14.9333 26.0047 15.3333C26.0047 15.7333 25.738 16 25.338 16ZM22.6714 17.3333C22.2714 17.3333 22.0047 17.0667 22.0047 16.6667C22.0047 16.2667 22.2714 16 22.6714 16C23.0714 16 23.338 16.2667 23.338 16.6667C23.338 17.0667 23.0714 17.3333 22.6714 17.3333Z" fill="white"/>
</g>
<defs>
<clipPath id="clip0_162_15553">
<rect x="0.0078125" width="30" height="20" rx="4" fill="white"/>
</clipPath>
</defs>
</svg>
