<svg width="30" height="20" viewBox="0 0 30 20" fill="none" xmlns="http://www.w3.org/2000/svg">
<g clip-path="url(#clip0_162_16975)">
<path d="M0 0H30V20H0V0Z" fill="#ED2024"/>
<path d="M10.8359 4.06615V9.39948L13.2026 10.2328L11.5359 11.8661L12.3359 12.8661L14.1026 11.0328L14.5026 11.7995L13.5026 13.4328L14.7026 15.2995L14.1026 16.1661L15.0359 17.3661L15.9359 16.1328L15.4359 15.2661L16.4359 13.3328L15.5359 11.7995L15.9359 11.0328L17.6693 12.8661L18.5026 11.8995L16.7693 10.1995L19.1693 9.33281V4.06615L17.4359 4.69948L17.4026 5.96615L16.3026 6.06615V5.19948L16.8693 4.43281L18.7359 3.69948L17.9693 3.56615L18.4359 3.16615L18.7359 3.29948L18.4693 2.83281L18.0026 2.99948L17.6693 2.63281L15.8359 2.99948L16.3026 3.36615L15.0359 4.99948L13.7693 3.39948L14.2026 3.03281L12.5359 2.63281L12.0693 2.99948L11.5693 2.86615L11.3026 3.33281L11.6026 3.13281L12.1359 3.49948L11.3693 3.66615L13.2026 4.33281L13.7359 5.09948V6.06615L12.6359 5.96615V4.76615L10.8359 4.06615Z" fill="#212121"/>
<path d="M8.73438 8.33242H10.8677V9.16576H8.73438V8.33242ZM8.73438 6.96575H10.8677V7.86576H8.73438V6.96575ZM8.73438 5.56576H10.8677V6.43242H8.73438V5.56576ZM8.73438 4.23242H10.8677V5.06576H8.73438V4.23242Z" fill="#212121"/>
<path d="M19.1328 8.33242H21.2661V9.16576H19.1328V8.33242ZM19.1328 6.96575H21.2661V7.86576H19.1328V6.96575ZM19.1328 5.56576H21.2661V6.43242H19.1328V5.56576ZM19.1328 4.23242H21.2661V5.06576H19.1328V4.23242Z" fill="#212121"/>
<path d="M17.8036 12.0332H19.937V12.6665H17.8036V12.0332ZM10.0703 12.0332H12.2036V12.6665H10.0703V12.0332Z" fill="#212121"/>
</g>
<defs>
<clipPath id="clip0_162_16975">
<rect width="30" height="20" rx="4" fill="white"/>
</clipPath>
</defs>
</svg>
