<svg width="30" height="20" viewBox="0 0 30 20" fill="none" xmlns="http://www.w3.org/2000/svg">
<g clip-path="url(#clip0_162_16019)">
<path d="M0.0078125 0H30.0078V20H0.0078125V0Z" fill="#0052B4"/>
<path d="M29.9493 8.67836V11.2807H16.2827V19.9591H13.6745V11.2807H0.0078125V8.67836H13.6745V0H16.2827V8.67836H29.9493Z" fill="white"/>
<path d="M5.91376 2.112C6.15938 2.10031 6.39914 2.10615 6.64476 2.1237C6.96639 2.14709 7.19446 2.21727 7.17692 2.15294C7.14768 2.04767 7.17107 2.02428 7.13014 2.04767C7.05411 2.10615 7.17107 2.03598 6.69739 2.30498C6.00733 2.6968 5.70908 2.99504 5.86113 3.53305C5.99563 4.00674 6.34066 4.13539 7.16522 4.26405L7.27634 4.28159C7.60382 4.33422 7.75002 4.36346 7.84944 4.41025C7.87283 4.42194 7.83189 4.35177 7.84359 4.31083C7.83189 4.34592 7.61552 4.43364 7.06581 4.5389L6.79096 4.59153C5.73248 4.80791 5.20616 5.08861 5.12429 5.8196C5.03657 6.62077 5.86698 7.18218 6.91376 7.31668C7.97809 7.45703 8.90792 7.10615 9.00148 6.24066C9.05996 5.69095 8.67984 5.36346 8.07166 5.24066C7.6623 5.15879 7.11844 5.15879 6.46932 5.22311C5.74417 5.29914 5.02487 5.42194 4.31142 5.59153C4.1009 5.63247 3.96639 5.83715 4.00733 6.04767C4.04827 6.2582 4.25294 6.3927 4.46347 6.35177C4.47517 6.35177 4.48101 6.34592 4.49271 6.34592C5.17107 6.18803 5.85528 6.07107 6.54534 6.00089C7.12429 5.94241 7.59797 5.94241 7.91376 6.00674C8.17107 6.05937 8.2237 6.10615 8.21786 6.15879C8.18862 6.45703 7.69739 6.63832 7.00733 6.5506C6.32897 6.46288 5.86698 6.15294 5.89037 5.90732C5.91961 5.65586 6.20031 5.50966 6.93715 5.35762L7.20616 5.30498C8.11259 5.12955 8.44008 4.99504 8.58043 4.53305C8.69154 4.15294 8.50441 3.85469 8.15938 3.70265C7.97224 3.62077 7.79096 3.57984 7.38745 3.52136L7.28218 3.50381C6.81435 3.42779 6.61552 3.35177 6.60967 3.32838C6.60382 3.30498 6.71493 3.19387 7.08335 2.98335L7.34066 2.83715C7.42838 2.79036 7.51025 2.73189 7.59213 2.67925C7.86113 2.48042 8.01318 2.26405 7.93131 1.95996C7.8202 1.53305 7.40499 1.4044 6.70908 1.35177C6.43423 1.33422 6.16522 1.32838 5.89037 1.33422L5.77341 1.34007C5.55704 1.35177 5.3933 1.5389 5.40499 1.74943C5.41669 1.9658 5.60382 2.12955 5.81435 2.11785L5.91376 2.112ZM22.5219 2.112C22.7676 2.10031 23.0073 2.10615 23.2529 2.1237C23.5746 2.14709 23.8027 2.21727 23.7851 2.15294C23.7559 2.04767 23.7793 2.02428 23.7383 2.04767C23.6623 2.10615 23.7793 2.03598 23.3056 2.30498C22.6155 2.6968 22.3173 2.99504 22.4693 3.53305C22.6038 4.00674 22.9489 4.13539 23.7734 4.26405L23.8845 4.28159C24.212 4.33422 24.3582 4.36346 24.4576 4.41025C24.481 4.42194 24.4401 4.35177 24.4518 4.31083C24.4401 4.34592 24.2237 4.43364 23.674 4.5389L23.3991 4.59153C22.3407 4.80791 21.8143 5.08861 21.7325 5.8196C21.6448 6.62077 22.4752 7.18218 23.5219 7.31668C24.5863 7.45703 25.5161 7.10615 25.6097 6.24066C25.6681 5.69095 25.288 5.36346 24.6798 5.24066C24.2705 5.15879 23.7266 5.15879 23.0775 5.22311C22.3524 5.29914 21.6331 5.42194 20.9196 5.59153C20.7091 5.63247 20.5746 5.83715 20.6155 6.04767C20.6565 6.2582 20.8611 6.3927 21.0717 6.35177C21.0834 6.35177 21.0892 6.34592 21.1009 6.34592C21.7793 6.18803 22.4635 6.07107 23.1535 6.00089C23.7325 5.94241 24.2062 5.94241 24.5219 6.00674C24.7793 6.05937 24.8319 6.10615 24.826 6.15879C24.7968 6.45703 24.3056 6.63832 23.6155 6.5506C22.9372 6.46288 22.4752 6.15294 22.4986 5.90732C22.5278 5.65586 22.8085 5.50966 23.5453 5.35762L23.8143 5.30498C24.7208 5.12955 25.0483 4.99504 25.1886 4.53305C25.2997 4.15294 25.1126 3.85469 24.7676 3.70265C24.5804 3.62077 24.3991 3.57984 23.9956 3.52136L23.8904 3.50381C23.4225 3.42779 23.2237 3.35177 23.2179 3.32838C23.212 3.30498 23.3231 3.19387 23.6915 2.98335L23.9489 2.83715C24.0366 2.79036 24.1184 2.73189 24.2003 2.67925C24.4693 2.48042 24.6214 2.26405 24.5395 1.95996C24.4284 1.53305 24.0132 1.4044 23.3173 1.35177C23.0424 1.33422 22.7734 1.32838 22.4986 1.33422L22.3816 1.34007C22.1652 1.35177 22.0015 1.5389 22.0132 1.74943C22.0249 1.9658 22.212 2.12955 22.4225 2.11785L22.5219 2.112ZM22.2062 13.7494C22.4518 13.7377 22.6915 13.7436 22.9372 13.7611C23.2588 13.7845 23.4869 13.8547 23.4693 13.7904C23.4401 13.6851 23.4635 13.6617 23.4225 13.6851C23.3465 13.7436 23.4635 13.6734 22.9898 13.9424C22.2997 14.3342 22.0015 14.6325 22.1535 15.1705C22.288 15.6442 22.6331 15.7728 23.4576 15.9015L23.5687 15.919C23.8962 15.9717 24.0424 16.0009 24.1418 16.0477C24.1652 16.0594 24.1243 15.9892 24.136 15.9483C24.1243 15.9833 23.9079 16.0711 23.3582 16.1763L23.0834 16.229C22.0249 16.4453 21.4986 16.726 21.4167 17.457C21.329 18.2582 22.1594 18.8196 23.2062 18.9541C24.2705 19.0945 25.2003 18.7436 25.2939 17.8781C25.3524 17.3284 24.9722 17.0009 24.3641 16.8781C23.9547 16.7962 23.4108 16.7962 22.7617 16.8605C22.0366 16.9366 21.3173 17.0594 20.6038 17.229C20.3933 17.2699 20.2588 17.4746 20.2997 17.6851C20.3407 17.8956 20.5453 18.0301 20.7559 17.9892C20.7676 17.9892 20.7734 17.9833 20.7851 17.9833C21.4635 17.8255 22.1477 17.7085 22.8377 17.6383C23.4167 17.5798 23.8904 17.5798 24.2062 17.6442C24.4635 17.6968 24.5161 17.7436 24.5103 17.7962C24.481 18.0945 23.9898 18.2757 23.2997 18.188C22.6214 18.1003 22.1594 17.7904 22.1828 17.5448C22.212 17.2933 22.4927 17.1471 23.2296 16.995L23.4986 16.9424C24.405 16.767 24.7325 16.6325 24.8728 16.1705C24.9839 15.7904 24.7968 15.4921 24.4518 15.3401C24.2646 15.2582 24.0834 15.2173 23.6798 15.1588L23.5746 15.1412C23.1067 15.0652 22.9079 14.9892 22.9021 14.9658C22.8962 14.9424 23.0073 14.8313 23.3758 14.6208L23.6331 14.4746C23.7208 14.4278 23.8027 14.3693 23.8845 14.3167C24.1535 14.1179 24.3056 13.9015 24.2237 13.5974C24.1126 13.1705 23.6974 13.0418 23.0015 12.9892C22.7266 12.9717 22.4576 12.9658 22.1828 12.9717L22.0658 12.9775C21.8494 12.9892 21.6857 13.1763 21.6974 13.3869C21.7091 13.5974 21.8962 13.767 22.1067 13.7553L22.2062 13.7494ZM5.91376 13.7494C6.15938 13.7377 6.39914 13.7436 6.64476 13.7611C6.96639 13.7845 7.19446 13.8547 7.17692 13.7904C7.14768 13.6851 7.17107 13.6617 7.13014 13.6851C7.05411 13.7436 7.17107 13.6734 6.69739 13.9424C6.00733 14.3342 5.70908 14.6325 5.86113 15.1705C5.99563 15.6442 6.34066 15.7728 7.16522 15.9015L7.27634 15.919C7.60382 15.9717 7.75002 16.0009 7.84944 16.0477C7.87283 16.0594 7.83189 15.9892 7.84359 15.9483C7.83189 15.9833 7.61552 16.0711 7.06581 16.1763L6.79096 16.229C5.73248 16.4453 5.20616 16.726 5.12429 17.457C5.03657 18.2582 5.86698 18.8196 6.91376 18.9541C7.97809 19.0945 8.90792 18.7436 9.00148 17.8781C9.05996 17.3284 8.67984 17.0009 8.07166 16.8781C7.6623 16.7962 7.11844 16.7962 6.46932 16.8605C5.74417 16.9366 5.02487 17.0594 4.31142 17.229C4.1009 17.2699 3.96639 17.4746 4.00733 17.6851C4.04827 17.8956 4.25294 18.0301 4.46347 17.9892C4.47517 17.9892 4.48101 17.9833 4.49271 17.9833C5.17107 17.8255 5.85528 17.7085 6.54534 17.6383C7.12429 17.5798 7.59797 17.5798 7.91376 17.6442C8.17107 17.6968 8.2237 17.7436 8.21786 17.7962C8.18862 18.0945 7.69739 18.2757 7.00733 18.188C6.32897 18.1003 5.86698 17.7904 5.89037 17.5448C5.91961 17.2933 6.20031 17.1471 6.93715 16.995L7.20616 16.9424C8.11259 16.767 8.44008 16.6325 8.58043 16.1705C8.69154 15.7904 8.50441 15.4921 8.15938 15.3401C7.97224 15.2582 7.79096 15.2173 7.38745 15.1588L7.28218 15.1412C6.81435 15.0652 6.61552 14.9892 6.60967 14.9658C6.60382 14.9424 6.71493 14.8313 7.08335 14.6208L7.34066 14.4746C7.42838 14.4278 7.51025 14.3693 7.59213 14.3167C7.86113 14.1179 8.01318 13.9015 7.93131 13.5974C7.8202 13.1705 7.40499 13.0418 6.70908 12.9892C6.43423 12.9717 6.16522 12.9658 5.89037 12.9717L5.77341 12.9775C5.55704 12.9892 5.3933 13.1763 5.40499 13.3869C5.41669 13.6032 5.60382 13.767 5.81435 13.7553L5.91376 13.7494Z" fill="white"/>
</g>
<defs>
<clipPath id="clip0_162_16019">
<rect x="0.0078125" width="30" height="20" rx="4" fill="white"/>
</clipPath>
</defs>
</svg>
