<svg width="30" height="20" viewBox="0 0 30 20" fill="none" xmlns="http://www.w3.org/2000/svg">
<g clip-path="url(#clip0_162_15536)">
<path d="M0 0H30V19.9996H0V0Z" fill="white"/>
<path d="M0 0H30V6.6665H0V0Z" fill="#D80027"/>
<path d="M0 13.334H30V20.0005H0V13.334Z" fill="#6DA544"/>
<path d="M13.2617 12.6087H16.7401V11.1304L16.0444 11.4782L15.0009 10.4348L13.9574 11.4782L13.2617 11.1304V12.6087ZM11.2717 10.8695L11.4336 11.3678H11.9574L11.5336 11.6757L11.6955 12.1739L11.2717 11.866L10.8479 12.1739L11.0097 11.6757L10.5859 11.3678H11.1098L11.2717 10.8695ZM11.7736 9.13045L11.9355 9.62861H12.4594L12.0355 9.93652L12.1974 10.4348L11.7736 10.1268L11.3498 10.4348L11.5117 9.93652L11.0879 9.62861H11.6117L11.7736 9.13045ZM13.2085 7.82609L13.3704 8.32426H13.8942L13.4704 8.63217L13.6323 9.13045L13.2085 8.82248L12.7846 9.13045L12.9465 8.63217L12.5227 8.32426H13.0465L13.2085 7.82609ZM18.7301 10.8695L18.5682 11.3678H18.0444L18.4682 11.6757L18.3063 12.1739L18.7301 11.866L19.154 12.1739L18.9921 11.6757L19.4159 11.3678H18.8921L18.7301 10.8695ZM18.2282 9.13045L18.0663 9.62861H17.5425L17.9663 9.93652L17.8044 10.4348L18.2282 10.1268L18.6521 10.4348L18.4902 9.93652L18.914 9.62861H18.3902L18.2282 9.13045ZM16.7934 7.82609L16.6315 8.32426H16.1076L16.5314 8.63217L16.3696 9.13045L16.7934 8.82248L17.2172 9.13045L17.0553 8.63217L17.4791 8.32426H16.9553L16.7934 7.82609ZM15.0009 7.17383L15.1628 7.67205H15.6867L15.2628 7.98002L15.4247 8.47818L15.0009 8.17033L14.5771 8.47818L14.739 7.98002L14.3151 7.67205H14.839L15.0009 7.17383Z" fill="#FFDA44"/>
</g>
<defs>
<clipPath id="clip0_162_15536">
<rect width="30" height="20" rx="4" fill="white"/>
</clipPath>
</defs>
</svg>
