<svg width="30" height="20" viewBox="0 0 30 20" fill="none" xmlns="http://www.w3.org/2000/svg">
<g clip-path="url(#clip0_162_16820)">
<path d="M0.0078125 0H30.0107V20H0.0078125V0Z" fill="white"/>
<path d="M0.0078125 20H30.0107V0L0.0078125 20Z" fill="#012A87"/>
<path d="M14.6811 0H0.0078125V9.78025L14.6811 0Z" fill="#F9D90F"/>
<path d="M8.23633 6.93164L8.95117 8.17383H10.3867L9.66602 9.41016L10.3867 10.6523H8.95117L8.23633 11.8945L7.52148 10.6523H6.08594L6.80664 9.41016L6.08594 8.17383H7.52148L8.23633 6.93164Z" fill="#DC171D"/>
<path fill-rule="evenodd" clip-rule="evenodd" d="M8.23777 6.29389C6.51591 6.29389 5.12007 7.68974 5.12007 9.4116C5.12007 11.1335 6.51591 12.5293 8.23777 12.5293C9.95963 12.5293 11.3555 11.1335 11.3555 9.4116C11.3555 7.68974 9.95963 6.29389 8.23777 6.29389ZM4.59375 9.4116C4.59375 7.39906 6.22523 5.76758 8.23777 5.76758C10.2503 5.76758 11.8818 7.39906 11.8818 9.4116C11.8818 11.4241 10.2503 13.0556 8.23777 13.0556C6.22523 13.0556 4.59375 11.4241 4.59375 9.4116Z" fill="black"/>
</g>
<defs>
<clipPath id="clip0_162_16820">
<rect x="0.0078125" width="30.0029" height="20" rx="4" fill="white"/>
</clipPath>
</defs>
</svg>
