<svg width="30" height="20" viewBox="0 0 30 20" fill="none" xmlns="http://www.w3.org/2000/svg">
<g clip-path="url(#clip0_162_16423)">
<path d="M0.0078125 0H30.0078V20H0.0078125V0Z" fill="white"/>
<path d="M0.0078125 0H30.0078V2.22222H0.0078125V0ZM0.0078125 4.44444H30.0078V6.66667H0.0078125V4.44444ZM0.0078125 8.88889H30.0078V11.1111H0.0078125V8.88889ZM0.0078125 13.3333H30.0078V15.5556H0.0078125V13.3333ZM0.0078125 17.7778H30.0078V20H0.0078125V17.7778Z" fill="#0D5EAF"/>
<path d="M0.0078125 0H11.1189V11.1111H0.0078125V0Z" fill="#0D5EAF"/>
<path d="M0.0078125 4.44531H11.1189V6.66753H0.0078125V4.44531Z" fill="white"/>
<path d="M4.45312 0H6.67535V11.1111H4.45312V0Z" fill="white"/>
</g>
<defs>
<clipPath id="clip0_162_16423">
<rect x="0.0078125" width="30" height="20" rx="4" fill="white"/>
</clipPath>
</defs>
</svg>
