<svg width="30" height="20" viewBox="0 0 30 20" fill="none" xmlns="http://www.w3.org/2000/svg">
<g clip-path="url(#clip0_162_16181)">
<path d="M0.0078125 0H30.0078V20H0.0078125V0Z" fill="white"/>
<path fill-rule="evenodd" clip-rule="evenodd" d="M4.58594 6.05859L7.35943 1.89834L8.0893 2.38492L5.31581 6.54517L4.58594 6.05859ZM5.626 6.75197L8.3995 2.59171L9.12937 3.07829L6.35587 7.23855L5.626 6.75197ZM6.66606 7.44534L9.43956 3.28509L10.1694 3.77167L7.39593 7.93192L6.66606 7.44534ZM19.8402 16.2281L22.6137 12.0678L23.3436 12.5544L20.5701 16.7147L19.8402 16.2281ZM20.8803 16.9215L23.6538 12.7612L24.3836 13.2478L21.6101 17.408L20.8803 16.9215ZM25.4237 13.9412L22.6502 18.1014L21.9203 17.6148L24.6938 13.4546L25.4237 13.9412Z" fill="black"/>
<path fill-rule="evenodd" clip-rule="evenodd" d="M24.1622 16.5437L20.6953 14.2324L21.1008 13.6242L24.5677 15.9354L24.1622 16.5437Z" fill="white"/>
<path d="M19.1643 12.7735C20.6961 10.4758 20.0752 7.37147 17.7776 5.83971C15.4799 4.30795 12.3756 4.92882 10.8438 7.22646C9.31205 9.52411 9.93292 12.6285 12.2306 14.1602C14.5282 15.692 17.6326 15.0711 19.1643 12.7735Z" fill="#CA163A"/>
<path d="M10.8438 7.22646C10.0783 8.37469 10.389 9.92785 11.5372 10.6933C12.6854 11.4588 14.2386 11.1482 15.0041 9.99996C15.7695 8.85173 17.3227 8.5411 18.4709 9.30658C19.6192 10.0721 19.9298 11.6252 19.1643 12.7735C17.6333 15.0699 14.527 15.6912 12.2306 14.1602C9.93411 12.6292 9.31284 9.52292 10.8438 7.22646Z" fill="#0E4896"/>
<path fill-rule="evenodd" clip-rule="evenodd" d="M22.6502 1.89844L25.4237 6.0587L24.6938 6.54528L21.9203 2.38502L22.6502 1.89844ZM21.6101 2.59183L24.3836 6.75207L23.6538 7.23865L20.8802 3.07842L21.6101 2.59183ZM20.57 3.2852L23.3435 7.44544L22.6137 7.93202L19.8402 3.77178L20.57 3.2852ZM7.39587 12.0679L10.1694 16.2282L9.43951 16.7148L6.666 12.5545L7.39587 12.0679ZM6.35581 12.7613L9.12931 16.9216L8.39944 17.4082L5.62594 13.2479L6.35581 12.7613ZM5.31581 13.4547L8.08931 17.615L7.35944 18.1015L4.58594 13.9413L5.31581 13.4547Z" fill="black"/>
<path d="M6.85938 15.4293L7.89944 14.7359L6.85938 15.4293ZM20.8988 6.06965L22.1136 5.25978L20.8988 6.06965ZM23.1537 4.56641L24.1937 3.87305L23.1537 4.56641Z" fill="black"/>
<path fill-rule="evenodd" clip-rule="evenodd" d="M24.3961 4.17854L23.356 4.87191L22.9505 4.26368L23.9906 3.57031L24.3961 4.17854ZM22.316 5.56527L21.1012 6.37514L20.6957 5.76691L21.9105 4.95705L22.316 5.56527ZM8.10178 15.0414L7.06171 15.7348L6.65625 15.1265L7.69632 14.4332L8.10178 15.0414Z" fill="white"/>
</g>
<defs>
<clipPath id="clip0_162_16181">
<rect x="0.0078125" width="30" height="20" rx="4" fill="white"/>
</clipPath>
</defs>
</svg>
