<svg width="31" height="20" viewBox="0 0 31 20" fill="none" xmlns="http://www.w3.org/2000/svg">
<g clip-path="url(#clip0_162_16384)">
<path d="M0.015625 0H29.9571V19.9591H0.015625V0Z" fill="#D80027"/>
<path d="M0.664062 0.648438H29.3015V19.3093H0.664062V0.648438Z" fill="#0052B4"/>
<path d="M14.9835 16.6847C14.9835 16.6847 19.4513 13.6847 19.4513 9.98299C19.4513 6.28124 14.9835 3.27539 14.9835 3.27539C14.9835 3.27539 10.5156 6.27539 10.5156 9.97715C10.5156 13.6789 14.9835 16.6847 14.9835 16.6847Z" fill="#7DBEF1"/>
<path d="M10.5312 10.5664H19.4552L17.7418 14.3617H12.1745L10.5312 10.5664Z" fill="#1C8AE6"/>
<path d="M11.2578 12.041C11.2578 12.041 13.6262 14.2749 14.2403 14.2749C14.9654 14.2749 14.9771 13.1989 15.7315 12.7837C16.9128 12.1346 18.714 12.041 18.714 12.041L17.3806 14.5439L14.983 16.6843L12.2461 14.3627L11.2578 12.041Z" fill="#FFF042"/>
<path d="M14.988 9.21069L13.6722 10.123L14.1342 8.5908L12.8594 7.62589L14.4617 7.59665L14.988 6.08203L15.5143 7.59665L17.1167 7.62589L15.8418 8.59665L16.3038 10.1288L14.988 9.21069Z" fill="#259C7B"/>
<path d="M14.6194 8.45579C14.5667 8.99381 14.5317 9.53182 14.52 10.0698C14.5024 10.7657 14.5375 11.2804 14.6369 11.5903C14.7656 11.9763 15.058 12.3447 15.4673 12.6956C15.7773 12.9646 16.0872 13.1692 16.2977 13.2862C16.479 13.3856 16.7071 13.3213 16.8065 13.1459C16.9059 12.9646 16.8416 12.7365 16.6662 12.6371C16.4147 12.4909 16.1749 12.3213 15.9527 12.1283C15.6369 11.8593 15.4205 11.5903 15.3445 11.3505C15.2802 11.1517 15.251 10.6897 15.2626 10.0815C15.2743 9.56106 15.3094 9.04059 15.3621 8.52597C15.3855 8.32129 15.2334 8.14 15.0287 8.11661C14.8182 8.09907 14.6369 8.25112 14.6194 8.45579Z" fill="#8E5715"/>
<path d="M12.75 9.98242L14.2412 12.2163H12.75V9.98242Z" fill="white"/>
<path fill-rule="evenodd" clip-rule="evenodd" d="M15.1786 2.9832L14.9828 3.27433L14.7872 2.98303L14.983 2.85156L15.1786 2.9832ZM14.9828 16.6837C14.7869 16.9748 14.7868 16.9747 14.7867 16.9747L14.7854 16.9738L14.7824 16.9717C14.7798 16.97 14.7761 16.9675 14.7714 16.9643C14.765 16.9599 14.7567 16.9541 14.7465 16.947C14.7418 16.9438 14.7367 16.9402 14.7313 16.9364C14.6967 16.9122 14.6467 16.8767 14.5836 16.8304C14.4573 16.738 14.2781 16.6026 14.0637 16.4287C13.6354 16.0814 13.0635 15.5784 12.4906 14.9556C11.3564 13.7226 10.1641 11.962 10.1641 9.97608C10.1641 7.99005 11.3564 6.23093 12.4908 4.99934C13.0637 4.37728 13.6356 3.87497 14.0639 3.52821C14.2783 3.3546 14.4575 3.21943 14.5838 3.12715C14.647 3.081 14.6969 3.04555 14.7316 3.02135C14.7489 3.00925 14.7623 2.99996 14.7717 2.99355C14.7764 2.99034 14.78 2.98786 14.7826 2.9861L14.7857 2.98402L14.787 2.98317C14.7871 2.98309 14.7872 2.98303 14.9828 3.27433C15.1786 2.9832 15.1787 2.98327 15.1789 2.98335L15.1792 2.98356L15.1801 2.98419L15.1832 2.98628C15.1858 2.98804 15.1894 2.99053 15.1941 2.99374C15.2035 3.00016 15.2169 3.00947 15.2342 3.02159C15.2689 3.04584 15.3188 3.08135 15.382 3.12758C15.5083 3.22001 15.6874 3.35542 15.9019 3.52929C16.3302 3.87661 16.902 4.37964 17.4749 5.00242C18.6092 6.23541 19.8015 7.99597 19.8015 9.98193C19.8015 11.968 18.6091 13.7271 17.4748 14.9587C16.9018 15.5807 16.33 16.083 15.9017 16.4298C15.6872 16.6034 15.508 16.7386 15.3818 16.8309C15.3186 16.877 15.2686 16.9125 15.234 16.9367C15.2167 16.9488 15.2032 16.9581 15.1938 16.9645C15.1892 16.9677 15.1855 16.9702 15.1829 16.9719L15.1798 16.974L15.1789 16.9746L15.1786 16.9748C15.1785 16.9749 15.1784 16.975 14.9828 16.6837ZM14.9828 16.6837L14.7869 16.9748L14.9826 17.1065L15.1784 16.975L14.9828 16.6837ZM14.983 16.2531C15.1002 16.1671 15.2643 16.0429 15.4601 15.8844C15.8695 15.553 16.4146 15.0739 16.9586 14.4833C18.0582 13.2894 19.0997 11.6976 19.0997 9.98193C19.0997 8.26613 18.0581 6.67289 16.9585 5.47753C16.4144 4.88612 15.8693 4.40633 15.4599 4.07437C15.264 3.91554 15.0998 3.79106 14.9826 3.70491C14.8654 3.7909 14.7013 3.91512 14.5055 4.07363C14.0961 4.40504 13.551 4.88409 13.0069 5.47476C11.9074 6.66861 10.8658 8.26036 10.8658 9.97608C10.8658 11.6919 11.9074 13.2851 13.0071 14.4805C13.5511 15.0719 14.0963 15.5517 14.5057 15.8836C14.7015 16.0425 14.8657 16.167 14.983 16.2531Z" fill="#D80027"/>
</g>
<defs>
<clipPath id="clip0_162_16384">
<rect x="0.015625" width="30" height="20" rx="4" fill="white"/>
</clipPath>
</defs>
</svg>
