<svg width="30" height="20" viewBox="0 0 30 20" fill="none" xmlns="http://www.w3.org/2000/svg">
<g clip-path="url(#clip0_162_15328)">
<path d="M0 0H30V20.0002H0V0Z" fill="#496E2D"/>
<path d="M28.75 6.45312H25.9375C25.9375 5.93539 25.5177 5.51562 25 5.51562C24.4823 5.51562 24.0625 5.93539 24.0625 6.45312H21.25C21.25 6.97086 21.701 7.39062 22.2187 7.39062H22.1875C22.1875 7.90836 22.6071 8.32812 23.125 8.32812C23.125 8.84586 23.5446 9.26562 24.0625 9.26562H25.9375C26.4552 9.26562 26.875 8.84586 26.875 8.32812C27.3927 8.32812 27.8125 7.90836 27.8125 7.39062H27.7813C28.2991 7.39062 28.75 6.97086 28.75 6.45312Z" fill="#FF9811"/>
<path d="M20 10H23.3333V19.9998H20V10Z" fill="#D80027"/>
<path d="M26.6641 10H29.9973V19.9998H26.6641V10Z" fill="#FF9811"/>
<path d="M23.3359 10H26.6692V19.9998H23.3359V10Z" fill="black"/>
</g>
<defs>
<clipPath id="clip0_162_15328">
<rect width="30" height="20" rx="4" fill="white"/>
</clipPath>
</defs>
</svg>
