<svg width="30" height="20" viewBox="0 0 30 20" fill="none" xmlns="http://www.w3.org/2000/svg">
<g clip-path="url(#clip0_162_16901)">
<path d="M0.0078125 0H30.0137V20H0.0078125V0Z" fill="#10338C"/>
<path d="M5.85156 0H25.8516V20" fill="#F6C500"/>
<path d="M1.17188 1.23392L2.36486 0.362573L3.56954 1.22807L3.16603 0H1.56954L1.17188 1.23392Z" fill="white"/>
<path d="M5.40547 1.49138L4.94349 0.0761719L4.48734 1.49138H3.00781L4.20664 2.35687L3.7505 3.76038L4.94349 2.89489L6.14816 3.76038L5.68618 2.35687L6.88501 1.48553L5.40547 1.49138Z" fill="white"/>
<path d="M7.97972 4.04609L7.52357 2.64258L7.06743 4.04609H5.59375L6.78673 4.91743L6.33059 6.32094L7.52357 5.45544L8.72825 6.32094L8.27211 4.91743L9.46509 4.04609H7.97972Z" fill="white"/>
<path d="M10.5012 6.56756L10.045 5.1582L9.58891 6.56756H8.10938L9.30821 7.43891L8.85206 8.84241L10.045 7.97692L11.2497 8.84241L10.7877 7.43891L11.9866 6.56171L10.5012 6.56756Z" fill="white"/>
<path d="M13.0227 9.08124L12.5665 7.67773L12.1104 9.08124H10.625L11.8297 9.95844L11.3735 11.3619L12.5665 10.4906L13.7595 11.3619L13.3034 9.95844L14.508 9.08124H13.0227Z" fill="white"/>
<path d="M15.5383 11.6027L15.0821 10.1992L14.626 11.6027H13.1406L14.3453 12.4741L13.8892 13.8834L15.0821 13.0121L16.2751 13.8834L15.819 12.4682L17.0178 11.6027H15.5383Z" fill="white"/>
<path d="M18.0617 14.1223L17.5997 12.7188L17.1436 14.1223H15.6641L16.8629 14.9878L16.4009 16.403L17.6056 15.5316L18.7986 16.3971L18.3424 14.9878L19.5413 14.1223H18.0617Z" fill="white"/>
<path d="M20.5715 16.6437L20.1154 15.2285L19.6592 16.6437H18.1797L19.3727 17.5092L18.9165 18.9186L20.1154 18.0472L21.3142 18.9186L20.8581 17.5092L22.051 16.6437H20.5715Z" fill="white"/>
<path d="M22.6368 17.748L22.1748 19.1574L20.6953 19.1633L21.8532 19.9995H23.4088L24.5725 19.1574H23.093L22.6368 17.748Z" fill="white"/>
</g>
<defs>
<clipPath id="clip0_162_16901">
<rect x="0.0078125" width="30" height="20" rx="4" fill="white"/>
</clipPath>
</defs>
</svg>
