<svg width="31" height="20" viewBox="0 0 31 20" fill="none" xmlns="http://www.w3.org/2000/svg">
<g clip-path="url(#clip0_162_15944)">
<path d="M0.945312 13.7324H30.943V19.9991H0.945312V13.7324Z" fill="#009543"/>
<path d="M0.945312 6.1875H30.943V13.7478H0.945312V6.1875Z" fill="#ED4135"/>
<path d="M0.945312 0H30.943V6.24795H0.945312V0Z" fill="#0035AD"/>
<path d="M12.1932 17.3707C16.2651 17.3707 19.566 14.0698 19.566 9.99786C19.566 5.92594 16.2651 2.625 12.1932 2.625C8.12126 2.625 4.82031 5.92594 4.82031 9.99786C4.82031 14.0698 8.12126 17.3707 12.1932 17.3707Z" fill="#FAE600"/>
<path fill-rule="evenodd" clip-rule="evenodd" d="M12.1919 2.78062C8.20554 2.78062 4.97398 6.01219 4.97398 9.99852C4.97398 13.9849 8.20554 17.2164 12.1919 17.2164C16.1782 17.2164 19.4098 13.9849 19.4098 9.99852C19.4098 6.01219 16.1782 2.78062 12.1919 2.78062ZM4.66406 9.99852C4.66406 5.84102 8.03438 2.4707 12.1919 2.4707C16.3494 2.4707 19.7197 5.84102 19.7197 9.99852C19.7197 14.156 16.3494 17.5263 12.1919 17.5263C8.03438 17.5263 4.66406 14.156 4.66406 9.99852Z" fill="black"/>
<path d="M15.3792 16.6161L13.8887 17.1785L12.1966 17.3754L10.4249 17.2629L8.74219 16.5364C8.74219 16.5364 10.0827 15.1631 10.6499 14.9662C11.0529 14.8256 11.6998 14.7928 11.6998 14.7928V5.71851L11.6857 2.625H12.4778L12.4544 5.78882V14.774C12.4544 14.774 13.1715 14.8303 13.4903 14.9662C14.0199 15.1959 15.3792 16.6161 15.3792 16.6161Z" fill="black"/>
<path d="M10.9141 4.79889L12.9276 3.79492L13.189 4.31931L11.1755 5.32323L10.9141 4.79889Z" fill="black"/>
<path d="M12.0922 14.3906C12.5271 14.3906 12.8797 13.8345 12.8797 13.1484C12.8797 12.4624 12.5271 11.9062 12.0922 11.9062C11.6573 11.9062 11.3047 12.4624 11.3047 13.1484C11.3047 13.8345 11.6573 14.3906 12.0922 14.3906Z" fill="black"/>
<path d="M12.0734 7.70156C12.6145 7.70156 13.0531 7.26294 13.0531 6.72187C13.0531 6.18081 12.6145 5.74219 12.0734 5.74219C11.5324 5.74219 11.0938 6.18081 11.0938 6.72187C11.0938 7.26294 11.5324 7.70156 12.0734 7.70156Z" fill="black"/>
<path d="M12.1203 10.4625C12.6355 10.4625 13.0531 10.2086 13.0531 9.89531C13.0531 9.58206 12.6355 9.32812 12.1203 9.32812C11.6051 9.32812 11.1875 9.58206 11.1875 9.89531C11.1875 10.2086 11.6051 10.4625 12.1203 10.4625Z" fill="black"/>
<path d="M10.9688 8.29688H13.1719V8.76562H10.9688V8.29688ZM10.9688 10.9687H13.1719V11.4375H10.9688V10.9687Z" fill="black"/>
</g>
<defs>
<clipPath id="clip0_162_15944">
<rect x="0.945312" width="29.9977" height="20" rx="4" fill="white"/>
</clipPath>
</defs>
</svg>
