<svg width="30" height="20" viewBox="0 0 30 20" fill="none" xmlns="http://www.w3.org/2000/svg">
<g clip-path="url(#clip0_162_15615)">
<path d="M0.0078125 0H30.0078V19.9996H0.0078125V0Z" fill="#0052B4"/>
<path d="M30.0078 0V9.76699L0.0078125 10.0103V0H30.0078Z" fill="#D80027"/>
<path d="M15.0078 10.0005L0.0078125 20.0002V0L15.0078 10.0005Z" fill="white"/>
<path d="M3.5035 10C3.4963 10.0891 3.49253 10.1784 3.49219 10.2678C3.49219 12.1909 5.05119 13.7499 6.97436 13.7499C8.89752 13.7499 10.4565 12.1909 10.4565 10.2678C10.4565 10.1776 10.452 10.0884 10.4452 10H3.5035Z" fill="#FFDA44"/>
<path d="M6.9777 8.39289C7.56944 8.39289 8.04914 7.91319 8.04914 7.32144C8.04914 6.7297 7.56944 6.25 6.9777 6.25C6.38595 6.25 5.90625 6.7297 5.90625 7.32144C5.90625 7.91319 6.38595 8.39289 6.9777 8.39289Z" fill="#FFDA44"/>
<path d="M4.5625 7.05273V10.5349C4.5625 12.3803 6.97328 12.9456 6.97328 12.9456C6.97328 12.9456 9.38406 12.3803 9.38406 10.5349V7.05273H4.5625Z" fill="#D80027"/>
<path d="M6.9732 11.8252C6.52602 11.6643 5.63281 11.2529 5.63281 10.5358V8.125H8.31143V10.5358C8.31137 11.2553 7.41822 11.6656 6.9732 11.8252Z" fill="#338AF3"/>
<path d="M7.51115 9.46365V8.92799L6.97537 8.66016L6.43971 8.92799V9.46365L6.17188 9.7316V10.803H7.77898V9.7316L7.51115 9.46365Z" fill="#F3F3F3"/>
</g>
<defs>
<clipPath id="clip0_162_15615">
<rect x="0.0078125" width="30" height="20" rx="4" fill="white"/>
</clipPath>
</defs>
</svg>
