<svg width="30" height="20" viewBox="0 0 30 20" fill="none" xmlns="http://www.w3.org/2000/svg">
<g clip-path="url(#clip0_162_16914)">
<path d="M0 0H30V20H0V0Z" fill="#EF3340"/>
<path d="M0 0H30V6.66667H0V0Z" fill="#00B5E2"/>
<path d="M0 13.334H30V20.0007H0V13.334Z" fill="#509E2F"/>
<path d="M15.5314 12.4328C14.1864 12.4328 13.0986 11.345 13.0986 10C13.0986 8.65498 14.1864 7.56726 15.5314 7.56726C15.9524 7.56726 16.3443 7.67253 16.6893 7.85966C16.1513 7.33334 15.4086 7.00586 14.5957 7.00586C12.9407 7.00586 11.6016 8.34504 11.6016 10C11.6016 11.655 12.9407 12.9942 14.5957 12.9942C15.4086 12.9942 16.1513 12.6667 16.6893 12.1404C16.3443 12.3275 15.9524 12.4328 15.5314 12.4328Z" fill="white"/>
<path d="M17.403 8.31641L17.7246 9.22284L18.5959 8.80763L18.1807 9.67898L19.0872 10.0006L18.1807 10.3223L18.5959 11.1936L17.7246 10.7784L17.403 11.6848L17.0813 10.7784L16.21 11.1936L16.6252 10.3223L15.7188 10.0006L16.6252 9.67898L16.21 8.80763L17.0813 9.22284L17.403 8.31641Z" fill="white"/>
</g>
<defs>
<clipPath id="clip0_162_16914">
<rect width="30" height="20" rx="4" fill="white"/>
</clipPath>
</defs>
</svg>
