<svg width="30" height="20" viewBox="0 0 30 20" fill="none" xmlns="http://www.w3.org/2000/svg">
<g clip-path="url(#clip0_162_15564)">
<path d="M0 0H30V20.0002H0V0Z" fill="#0052B4"/>
<path d="M19.4531 6.25V10.8333C19.4531 13.0659 22.4966 13.75 22.4966 13.75C22.4966 13.75 25.5401 13.0659 25.5401 10.8333V6.25H19.4531Z" fill="#FFDA44"/>
<path d="M22.0672 7.91731C22.0672 8.37756 21.6779 9.58401 21.1977 9.58401C20.7174 9.58401 20.3281 8.37762 20.3281 7.91731C20.3281 7.45699 21.1977 7.08398 21.1977 7.08398C21.1977 7.08398 22.0672 7.45705 22.0672 7.91731Z" fill="#FF9811"/>
<path d="M24.3692 8.82492C24.5095 8.4968 24.6187 8.01721 24.6187 7.77844C24.6187 7.39488 24.097 7.08398 24.097 7.08398C24.097 7.08398 23.5752 7.39488 23.5752 7.77844C23.5752 8.01721 23.6843 8.4968 23.8247 8.82492L23.5234 9.47666C23.7063 9.54781 23.9008 9.58419 24.097 9.58395C24.2999 9.58395 24.4934 9.54563 24.6705 9.47666L24.3692 8.82492Z" fill="#A2001D"/>
<path d="M21.8489 10.8327C21.8489 10.8327 21.4141 11.666 21.4141 12.4994H23.5879C23.5879 11.6661 23.1531 10.8327 23.1531 10.8327L22.501 10.416L21.8489 10.8327Z" fill="#6DA544"/>
<path d="M23.1559 10.8333V10.625C23.1559 10.2798 22.8639 10 22.5037 10C22.1435 10 21.8516 10.2798 21.8516 10.625V10.8333H23.1559Z" fill="#D80027"/>
<path d="M15 0V1.79022L12.3535 3.26086H15V6.73893H11.5369L15 8.66286V9.99979H13.4367L9.13043 7.60764V9.99979H5.86957V7.15372L0.746719 9.99979H0V8.20952L2.6465 6.73893H0V3.26086H3.46307L0 1.33629V0H1.56328L5.86957 2.39209V0H9.13043V2.84602L14.2533 0H15Z" fill="white"/>
<path d="M8.4375 0H6.5625V4.06243H0V5.93743H6.5625V9.99997H8.4375V5.93743H15V4.06243H8.4375V0Z" fill="#D80027"/>
<path d="M9.13281 6.73828L15.0024 9.99914V9.07705L10.7926 6.73828H9.13281Z" fill="#0052B4"/>
<path d="M9.13281 6.73828L15.0024 9.99914V9.07705L10.7926 6.73828H9.13281Z" fill="white"/>
<path d="M9.13043 6.73828L15 9.99914V9.07705L10.7902 6.73828H9.13043ZM4.20973 6.73828L0 9.07705V9.99914L5.86957 6.73828H4.20973Z" fill="#D80027"/>
<path d="M5.86957 3.26086L0 0V0.922091L4.20979 3.26086H5.86957Z" fill="#0052B4"/>
<path d="M5.86957 3.26086L0 0V0.922091L4.20979 3.26086H5.86957Z" fill="white"/>
<path d="M5.86957 3.26086L0 0V0.922091L4.20978 3.26086H5.86957ZM10.7903 3.26086L15 0.922091V0L9.13043 3.26086H10.7903Z" fill="#D80027"/>
</g>
<defs>
<clipPath id="clip0_162_15564">
<rect width="30" height="20" rx="4" fill="white"/>
</clipPath>
</defs>
</svg>
