<svg width="30" height="20" viewBox="0 0 30 20" fill="none" xmlns="http://www.w3.org/2000/svg">
<g clip-path="url(#clip0_162_16158)">
<path d="M0.0078125 0H30.0078V20H0.0078125V0Z" fill="#36B6CC"/>
<path d="M15.0078 13.9941C17.217 13.9941 19.0078 12.2033 19.0078 9.99414C19.0078 7.785 17.217 5.99414 15.0078 5.99414C12.7987 5.99414 11.0078 7.785 11.0078 9.99414C11.0078 12.2033 12.7987 13.9941 15.0078 13.9941Z" fill="#FFD400"/>
<path d="M15.0104 14.7082L13.3788 17.1468L12.9636 14.2404L10.4373 15.7316L11.3262 12.9363L8.40223 13.1819L10.4139 11.0474L7.67124 9.99478L10.4081 8.94215L8.39638 6.80765L11.3204 7.05326L10.4315 4.25794L12.9578 5.74332L13.373 2.83689L15.0046 5.27548L16.6361 2.83689L17.0514 5.74332L19.5777 4.25794L18.6888 7.05326L21.6128 6.80765L19.6069 8.948L22.3438 9.99478L19.6069 11.0474L21.6186 13.1819L18.6946 12.9363L19.5835 15.7316L17.0572 14.2462L16.642 17.1527C16.642 17.1468 15.0104 14.7082 15.0104 14.7082ZM15.0104 14.6614C17.5894 14.6614 19.6829 12.5679 19.6829 9.98893C19.6829 7.40999 17.5894 5.32227 15.0104 5.32227C12.4315 5.32227 10.3379 7.41583 10.3379 9.99478C10.3379 12.5737 12.4315 14.6614 15.0104 14.6614ZM1.34375 1.6556C1.34375 1.46846 1.4841 1.32227 1.67708 1.32227H2.3379C2.52504 1.32227 2.67124 1.46262 2.67124 1.6556V2.31642C2.67708 2.4977 2.53088 2.64975 2.34375 2.64975H1.67708C1.4958 2.64975 1.34375 2.50355 1.34375 2.32227V1.6556ZM1.34375 4.32811C1.34375 4.14098 1.4841 3.99478 1.67708 3.99478H2.3379C2.52504 3.99478 2.67124 4.13513 2.67124 4.32811V4.98893C2.67708 5.17022 2.53088 5.32227 2.34375 5.32227H1.67708C1.4958 5.32227 1.34375 5.17607 1.34375 4.99478V4.32811ZM1.34375 6.99478C1.34375 6.80765 1.4841 6.66145 1.67708 6.66145H2.3379C2.52504 6.66145 2.67124 6.8018 2.67124 6.99478V7.6556C2.67708 7.83689 2.53088 7.98893 2.34375 7.98893H1.67708C1.4958 7.98893 1.34375 7.84273 1.34375 7.66145V6.99478ZM1.34375 9.66145C1.34375 9.47431 1.4841 9.32811 1.67708 9.32811H2.3379C2.52504 9.32811 2.67124 9.46846 2.67124 9.66145V10.3223C2.67708 10.5036 2.53088 10.6556 2.34375 10.6556H1.67708C1.4958 10.6556 1.34375 10.5094 1.34375 10.3281V9.66145ZM1.34375 12.334C1.34375 12.1468 1.4841 12.0006 1.67708 12.0006H2.3379C2.52504 12.0006 2.67124 12.141 2.67124 12.334V12.9948C2.67708 13.1761 2.53088 13.3281 2.34375 13.3281H1.67708C1.4958 13.3281 1.34375 13.1819 1.34375 13.0006V12.334ZM1.34375 15.0006C1.34375 14.8135 1.4841 14.6673 1.67708 14.6673H2.3379C2.52504 14.6673 2.67124 14.8076 2.67124 15.0006V15.6614C2.67708 15.8427 2.53088 15.9948 2.34375 15.9948H1.67708C1.4958 15.9948 1.34375 15.8486 1.34375 15.6673V15.0006ZM1.34375 17.6673C1.34375 17.4802 1.4841 17.334 1.67708 17.334H2.3379C2.52504 17.334 2.67124 17.4743 2.67124 17.6673V18.3281C2.67708 18.5094 2.53088 18.6614 2.34375 18.6614H1.67708C1.4958 18.6614 1.34375 18.5152 1.34375 18.334V17.6673ZM2.67708 16.334C2.67708 16.1468 2.81743 16.0006 3.01042 16.0006H3.67124C3.85837 16.0006 4.00457 16.141 4.00457 16.334V16.9948C4.01042 17.1761 3.86422 17.3281 3.67708 17.3281H3.01042C2.82913 17.3281 2.67708 17.1819 2.67708 17.0006V16.334ZM2.67708 13.6673C2.67708 13.4802 2.81743 13.334 3.01042 13.334H3.67124C3.85837 13.334 4.00457 13.4743 4.00457 13.6673V14.3281C4.01042 14.5094 3.86422 14.6614 3.67708 14.6614H3.01042C2.82913 14.6614 2.67708 14.5152 2.67708 14.334V13.6673ZM2.67708 10.9948C2.67708 10.8076 2.81743 10.6614 3.01042 10.6614H3.67124C3.85837 10.6614 4.00457 10.8018 4.00457 10.9948V11.6556C4.01042 11.8369 3.86422 11.9889 3.67708 11.9889H3.01042C2.82913 11.9889 2.67708 11.8427 2.67708 11.6614V10.9948ZM2.67708 8.32811C2.67708 8.14098 2.81743 7.99478 3.01042 7.99478H3.67124C3.85837 7.99478 4.00457 8.13513 4.00457 8.32811V8.98893C4.01042 9.17022 3.86422 9.32227 3.67708 9.32227H3.01042C2.82913 9.32227 2.67708 9.17607 2.67708 8.99478V8.32811ZM2.67708 5.66145C2.67708 5.47431 2.81743 5.32811 3.01042 5.32811H3.67124C3.85837 5.32811 4.00457 5.46846 4.00457 5.66145V6.32227C4.01042 6.50355 3.86422 6.6556 3.67708 6.6556H3.01042C2.82913 6.6556 2.67708 6.5094 2.67708 6.32811V5.66145ZM2.67708 2.99478C2.67708 2.80765 2.81743 2.66145 3.01042 2.66145H3.67124C3.85837 2.66145 4.00457 2.8018 4.00457 2.99478V3.6556C4.01042 3.83689 3.86422 3.98893 3.67708 3.98893H3.01042C2.82913 3.98893 2.67708 3.84273 2.67708 3.66145V2.99478Z" fill="#FFD400"/>
</g>
<defs>
<clipPath id="clip0_162_16158">
<rect x="0.0078125" width="30" height="20" rx="4" fill="white"/>
</clipPath>
</defs>
</svg>
