<svg width="30" height="20" viewBox="0 0 30 20" fill="none" xmlns="http://www.w3.org/2000/svg">
<g clip-path="url(#clip0_162_15969)">
<path d="M0.0078125 0H30.0078V20H0.0078125V0Z" fill="white"/>
<path d="M0.0078125 0H30.0078V1.4269H0.0078125V0ZM0.0078125 2.85965H30.0078V4.28655H0.0078125V2.85965ZM0.0078125 5.71345H30.0078V7.14035H0.0078125V5.71345ZM0.0078125 8.5731H30.0078V10H0.0078125V8.5731ZM0.0078125 11.4269H30.0078V12.8538H0.0078125V11.4269ZM0.0078125 14.2865H30.0078V15.7135H0.0078125V14.2865ZM0.0078125 17.1404H30.0078V18.5673H0.0078125V17.1404Z" fill="#CC0000"/>
<path d="M0.0078125 0H15.0078V11.4269H0.0078125V0Z" fill="#000066"/>
<path d="M8.97462 2.46258C7.1793 1.79592 5.18515 2.7082 4.51848 4.50352C3.85182 6.29884 4.7641 8.29299 6.55942 8.95966C7.3372 9.25206 8.19685 9.25206 8.98047 8.95966C7.18515 10.3924 4.57112 10.1059 3.13252 8.31054C1.69392 6.51521 1.98632 3.90118 3.78164 2.46258C5.30211 1.25206 7.46 1.25206 8.97462 2.46258ZM10.536 6.84855L9.33135 8.21112L9.64714 6.42165L7.83427 6.32808L9.43077 5.45673L8.37228 3.9772L10.0448 4.67896L10.536 2.93042L11.0273 4.67896L12.6998 3.9772L11.6471 5.46258L13.2436 6.33393L11.4308 6.4275L11.7466 8.21697L10.536 6.84855Z" fill="#FFCC00"/>
</g>
<defs>
<clipPath id="clip0_162_15969">
<rect x="0.0078125" width="30" height="20" rx="4" fill="white"/>
</clipPath>
</defs>
</svg>
