<svg width="30" height="20" viewBox="0 0 30 20" fill="none" xmlns="http://www.w3.org/2000/svg">
<g clip-path="url(#clip0_162_15794)">
<path d="M0.0078125 0H30.0078V20.0002H0.0078125V0Z" fill="#0052B4"/>
<path d="M23.4858 7.88043L22.5075 8.2065L21.5292 7.88043L21.2031 7.06521L21.5292 6.25H23.4858L23.1596 7.06521L23.4858 7.88043Z" fill="#ACABB1"/>
<path d="M20.2266 7.88086V11.4678C20.2266 13.2151 22.5092 13.7504 22.5092 13.7504C22.5092 13.7504 24.7918 13.2151 24.7918 11.4678V7.88086H20.2266Z" fill="#338AF3"/>
<path d="M20.4297 12.3178C20.9908 13.3951 22.5065 13.7507 22.5065 13.7507C22.5065 13.7507 24.0223 13.3951 24.5834 12.3178L22.5065 8.85938L20.4297 12.3178Z" fill="#6DA544"/>
<path d="M24.7918 11.4316L22.5092 7.88086L20.2266 11.4316V11.4678C20.2266 11.7911 20.3049 12.0729 20.4323 12.3176L22.5092 9.08689L24.5861 12.3176C24.7135 12.0729 24.7918 11.7912 24.7918 11.4678V11.4316Z" fill="#FFDA44"/>
<path d="M15.0078 0V1.79022L12.3613 3.26086H15.0078V6.73893H11.5447L15.0078 8.66285V9.99979H13.4445L9.13824 7.60764V9.99979H5.87738V7.15371L0.754531 9.99979H0.0078125V8.20951L2.65432 6.73893H0.0078125V3.26086H3.47088L0.0078125 1.33629V0H1.57109L5.87738 2.39209V0H9.13824V2.84602L14.2611 0H15.0078Z" fill="white"/>
<path d="M8.44531 0H6.57031V4.06242H0.0078125V5.93742H6.57031V9.99996H8.44531V5.93742H15.0078V4.06242H8.44531V0Z" fill="#D80027"/>
<path d="M9.14062 6.73828L15.0102 9.99914V9.07705L10.8004 6.73828H9.14062Z" fill="#0052B4"/>
<path d="M9.14062 6.73828L15.0102 9.99914V9.07705L10.8004 6.73828H9.14062Z" fill="white"/>
<path d="M9.13824 6.73828L15.0078 9.99914V9.07705L10.798 6.73828H9.13824ZM4.21754 6.73828L0.0078125 9.07705V9.99914L5.87738 6.73828H4.21754Z" fill="#D80027"/>
<path d="M5.87738 3.26086L0.0078125 0V0.92209L4.2176 3.26086H5.87738Z" fill="#0052B4"/>
<path d="M5.87738 3.26086L0.0078125 0V0.92209L4.2176 3.26086H5.87738Z" fill="white"/>
<path d="M5.87738 3.26086L0.0078125 0V0.92209L4.2176 3.26086H5.87738ZM10.7981 3.26086L15.0078 0.92209V0L9.13824 3.26086H10.7981Z" fill="#D80027"/>
</g>
<defs>
<clipPath id="clip0_162_15794">
<rect x="0.0078125" width="30" height="20" rx="4" fill="white"/>
</clipPath>
</defs>
</svg>
