<svg width="30" height="20" viewBox="0 0 30 20" fill="none" xmlns="http://www.w3.org/2000/svg">
<g clip-path="url(#clip0_162_16250)">
<path d="M0 0H30V19.9996H0V0Z" fill="white"/>
<path d="M0 0H30V6.6665H0V0Z" fill="black"/>
<path d="M0 13.334H30V20.0005H0V13.334Z" fill="#6DA544"/>
<path d="M15 10.0005L0 20.0003V0L15 10.0005Z" fill="#D80027"/>
<path d="M4.5625 8.17188L5.02398 9.13686L6.06613 8.89603L5.59943 9.8585L6.4375 10.5231L5.39406 10.7583L5.39693 11.8279L4.5625 11.1588L3.72807 11.8279L3.731 10.7583L2.6875 10.5231L3.52557 9.8585L3.05887 8.89603L4.10102 9.13686L4.5625 8.17188Z" fill="white"/>
</g>
<defs>
<clipPath id="clip0_162_16250">
<rect width="30" height="20" rx="4" fill="white"/>
</clipPath>
</defs>
</svg>
