<svg width="30" height="20" viewBox="0 0 30 20" fill="none" xmlns="http://www.w3.org/2000/svg">
<g clip-path="url(#clip0_162_16228)">
<path d="M0 0H30V20H0V0Z" fill="#D80027"/>
<path d="M14.9746 19.9649C20.4878 19.9649 24.9571 15.4956 24.9571 9.98246C24.9571 4.4693 20.4878 0 14.9746 0C9.46148 0 4.99219 4.4693 4.99219 9.98246C4.99219 15.4956 9.46148 19.9649 14.9746 19.9649Z" fill="#D80027"/>
<path d="M22.3617 9.98235L19.3442 11.4034L20.9524 14.3274L17.6717 13.7017L17.2565 17.0116L14.9699 14.573L12.6834 17.0116L12.2682 13.7017L8.98748 14.3274L10.5957 11.4034L7.57812 9.98235L10.5957 8.5613L8.98748 5.63148L12.2682 6.26305L12.6834 2.94727L14.9699 5.38586L17.2565 2.94727L17.6717 6.26305L20.9524 5.63148L19.3442 8.5613L22.3617 9.98235Z" fill="#FFDA44"/>
<path d="M15.0543 14.1692C17.3668 14.1692 19.2415 12.2945 19.2415 9.98206C19.2415 7.66957 17.3668 5.79492 15.0543 5.79492C12.7418 5.79492 10.8672 7.66957 10.8672 9.98206C10.8672 12.2945 12.7418 14.1692 15.0543 14.1692Z" fill="#D80027"/>
<path d="M12.5266 9.98264C12.4038 9.98264 12.2869 9.98849 12.1641 10.0002C12.1699 10.7019 12.4214 11.3394 12.8424 11.8423C13.0646 11.2399 13.398 10.6961 13.819 10.2224C13.4155 10.0645 12.9828 9.98264 12.5266 9.98264ZM14.0822 12.7019C14.3863 12.813 14.7138 12.8715 15.053 12.8715C15.3921 12.8715 15.7196 12.813 16.0237 12.7019C15.86 12.0528 15.5149 11.4739 15.053 11.0177C14.591 11.4739 14.2459 12.0528 14.0822 12.7019ZM17.5559 8.53819C17.0588 7.6727 16.1231 7.09375 15.053 7.09375C13.9828 7.09375 13.053 7.6727 12.55 8.53819C13.4623 8.54404 14.3161 8.78966 15.053 9.21656C15.7898 8.78966 16.6436 8.53819 17.5559 8.53819ZM16.2869 10.2224C16.7079 10.6902 17.0413 11.2399 17.2635 11.8423C17.6845 11.3452 17.936 10.7019 17.9418 10.0002C17.8249 9.98849 17.7021 9.98264 17.5793 9.98264C17.129 9.98264 16.6904 10.0645 16.2869 10.2224Z" fill="#FFDA44"/>
</g>
<defs>
<clipPath id="clip0_162_16228">
<rect width="29.9415" height="20" rx="4" fill="white"/>
</clipPath>
</defs>
</svg>
