<svg width="30" height="20" viewBox="0 0 30 20" fill="none" xmlns="http://www.w3.org/2000/svg">
<g clip-path="url(#clip0_162_15748)">
<path d="M0 0H30V20.0002H0V0Z" fill="#0052B4"/>
<path d="M0 0H30V6.6665H0V0Z" fill="#D80027"/>
<path d="M0 13.332H30V19.9985H0V13.332Z" fill="white"/>
<path d="M7.58594 5.65234V10.6408C7.58594 13.4784 11.293 14.3478 11.293 14.3478C11.293 14.3478 14.9999 13.4783 14.9999 10.6408V5.65234H7.58594Z" fill="#D80027"/>
<path d="M9.11734 6.52076H13.4651V4.78164L12.5955 5.21641L11.2911 3.91211L9.98688 5.21641L9.11734 4.78164V6.52076ZM14.1286 11.3341L11.3026 8.50809L8.47656 11.3341L9.39889 12.2564L11.3026 10.3527L13.2063 12.2564L14.1286 11.3341Z" fill="#FFDA44"/>
<path d="M14.1286 8.6948H12.81C12.8869 8.56283 12.9273 8.41286 12.9273 8.26016C12.9273 7.77992 12.5379 7.39062 12.0578 7.39062C11.7259 7.39062 11.4378 7.57648 11.2912 7.84977C11.1446 7.57654 10.8563 7.39062 10.5246 7.39062C10.0444 7.39062 9.65506 7.77992 9.65506 8.26016C9.65506 8.41871 9.69818 8.56689 9.7723 8.6948H8.47656C8.47656 9.17504 8.89486 9.56434 9.37504 9.56434H9.34609C9.34609 10.0446 9.73539 10.4339 10.2156 10.4339C10.2156 10.8591 10.521 11.2123 10.9243 11.2879L10.2391 12.8349C10.5768 12.9722 10.9379 13.0428 11.3025 13.0425C11.6671 13.0428 12.0282 12.9722 12.3659 12.8349L11.6807 11.2879C12.084 11.2123 12.3893 10.8591 12.3893 10.4339C12.8696 10.4339 13.2589 10.0446 13.2589 9.56434H13.2299C13.7103 9.56434 14.1286 9.17504 14.1286 8.6948Z" fill="white"/>
</g>
<defs>
<clipPath id="clip0_162_15748">
<rect width="30" height="20" rx="4" fill="white"/>
</clipPath>
</defs>
</svg>
