<svg width="30" height="20" viewBox="0 0 30 20" fill="none" xmlns="http://www.w3.org/2000/svg">
<g clip-path="url(#clip0_162_15381)">
<path d="M0.0078125 0H30.0107V20H0.0078125V0Z" fill="white"/>
<path d="M23.3141 9.74545L20.3258 15.4701C20.2613 15.5872 20.3082 15.7337 20.4312 15.7982C20.5484 15.8626 20.6949 15.8158 20.7594 15.6927L23.7477 9.96811C23.8062 9.84506 23.7535 9.69858 23.6305 9.64585C23.5133 9.59311 23.3785 9.63413 23.3141 9.74545Z" fill="#1583C4"/>
<path d="M23.7338 11.0169L20.3471 15.4349C20.271 15.5462 20.3002 15.6985 20.4116 15.7747C20.5112 15.845 20.6518 15.8274 20.7338 15.7337L24.1206 11.3157C24.2026 11.2102 24.185 11.0579 24.0737 10.9759C23.9682 10.888 23.8159 10.9114 23.7338 11.0169Z" fill="#1583C4"/>
<path d="M22.2172 10.6235L20.3129 15.4926C20.266 15.6156 20.3246 15.7621 20.4535 15.809C20.5766 15.8559 20.7231 15.7973 20.7699 15.6684L22.6742 10.7992C22.7153 10.6703 22.6508 10.5356 22.5219 10.4887C22.3988 10.4535 22.2699 10.5121 22.2172 10.6235Z" fill="#1583C4"/>
<path d="M7.16162 10.0737C7.18506 10.1733 7.23193 10.3491 7.29052 10.5718C7.39013 10.9468 7.50146 11.3218 7.61865 11.6675C7.75341 12.0718 8.47998 13.5073 8.80224 13.9585C9.20654 14.5269 9.62841 15.0894 10.062 15.6343C10.1558 15.7456 10.3257 15.7573 10.437 15.6636C10.5425 15.5698 10.5601 15.4116 10.478 15.3003C10.0503 14.7612 9.63427 14.2104 9.23584 13.6479C8.98974 13.3081 8.22802 11.8257 8.12256 11.4976C7.95263 10.9878 7.80615 10.4663 7.67724 9.94482C7.64795 9.8042 7.50732 9.71045 7.3667 9.73974C7.22607 9.76904 7.13232 9.90966 7.16162 10.0503C7.15576 10.062 7.16162 10.0679 7.16162 10.0737Z" fill="#409347"/>
<path d="M17.4121 6.73317C17.4121 6.73317 16.3809 2.50857 15.2969 2.50857C14.8926 2.50857 14.5996 2.47341 14.3945 2.88357C14.3418 2.98317 13.1816 2.78982 13.2754 4.10232C13.3047 4.50661 13.3398 3.5281 14.1484 3.9031C14.5176 4.07888 13.1875 6.72732 13.1875 6.72732H17.4121V6.73317Z" fill="#FFD836"/>
<path fill-rule="evenodd" clip-rule="evenodd" d="M15.2097 2.4789C15.2385 2.4791 15.2677 2.4793 15.2974 2.4793C15.4427 2.4793 15.584 2.55006 15.7188 2.66807C15.8537 2.78618 15.9846 2.95381 16.11 3.15307C16.3607 3.55166 16.592 4.08193 16.7889 4.61064C16.9859 5.13966 17.1489 5.66851 17.2627 6.06499C17.3196 6.26326 17.3641 6.4285 17.3945 6.5442C17.4097 6.60205 17.4213 6.64752 17.4291 6.67854C17.431 6.68586 17.4326 6.69237 17.4341 6.69805H17.4419V6.97623L17.3882 6.75653H13.1406L13.1619 6.71417L13.188 6.72729C13.1619 6.71417 13.1619 6.71418 13.1619 6.71417L13.162 6.71405L13.1657 6.70662C13.1682 6.70163 13.1719 6.6942 13.1767 6.6845C13.1863 6.6651 13.2004 6.63661 13.2182 6.60028C13.2538 6.52762 13.3043 6.42359 13.3637 6.29821C13.4825 6.0474 13.637 5.71129 13.78 5.36981C13.923 5.02806 14.054 4.68201 14.1263 4.41098C14.1625 4.2752 14.1834 4.16012 14.1844 4.07455C14.1849 4.03173 14.1804 3.99818 14.1715 3.97372C14.1628 3.94977 14.1507 3.93634 14.1365 3.92953C13.939 3.83794 13.7925 3.83067 13.6834 3.86102C13.5741 3.89144 13.4978 3.96092 13.4434 4.03152C13.4161 4.06682 13.3946 4.1021 13.3772 4.13255C13.372 4.1417 13.3669 4.15079 13.3621 4.15943C13.3518 4.17813 13.3425 4.19476 13.335 4.20561C13.3321 4.20989 13.3287 4.21436 13.3249 4.21824C13.3215 4.22172 13.3154 4.22716 13.3067 4.22984C13.2958 4.23319 13.2842 4.23118 13.275 4.224C13.2677 4.21826 13.2638 4.21072 13.2617 4.20579C13.2574 4.19559 13.2548 4.18182 13.2527 4.16651C13.2505 4.15046 13.2486 4.12987 13.2468 4.1044C13.223 3.77209 13.2784 3.53189 13.3785 3.3576C13.4786 3.18313 13.6218 3.07744 13.7686 3.01141C13.9149 2.94558 14.0653 2.91895 14.1806 2.90248C14.2002 2.89968 14.2185 2.89721 14.2356 2.8949C14.2697 2.8903 14.2988 2.88637 14.3226 2.88193C14.3404 2.87861 14.3534 2.87533 14.3623 2.87193C14.3669 2.87016 14.3691 2.86881 14.37 2.86821C14.4756 2.65823 14.6059 2.55893 14.7635 2.51411C14.895 2.47673 15.045 2.47776 15.2097 2.4789ZM13.2352 6.69805H17.3738C17.3733 6.69637 17.3729 6.69464 17.3724 6.69287C17.3646 6.66201 17.3531 6.61671 17.3379 6.55904C17.3077 6.44371 17.2632 6.2789 17.2065 6.08112C17.093 5.68548 16.9304 5.15818 16.7341 4.63105C16.5377 4.1036 16.308 3.57773 16.0605 3.1842C15.9367 2.9874 15.8092 2.82498 15.6803 2.71206C15.5512 2.59904 15.4231 2.53778 15.2974 2.53778C15.2667 2.53778 15.2368 2.53759 15.2077 2.5374C15.0425 2.53635 14.9023 2.53546 14.7795 2.57036C14.6389 2.61033 14.5205 2.69798 14.4212 2.89662L14.4209 2.89722C14.4124 2.91336 14.3959 2.92165 14.3833 2.92651C14.3694 2.93187 14.3521 2.93592 14.3333 2.93942C14.308 2.94413 14.2765 2.94839 14.2414 2.95314C14.2246 2.9554 14.207 2.95778 14.1889 2.96037C14.0748 2.97666 13.9311 3.0024 13.7926 3.06475C13.6544 3.12689 13.5219 3.22518 13.4292 3.38671C13.3364 3.54842 13.2819 3.77626 13.3051 4.10019C13.3061 4.11396 13.3071 4.12593 13.3081 4.13629C13.3083 4.13584 13.3086 4.13539 13.3088 4.13493C13.3139 4.12576 13.3197 4.11532 13.3264 4.10355C13.3445 4.07199 13.3675 4.03412 13.3971 3.99581C13.4561 3.91919 13.5421 3.83963 13.6677 3.80468C13.7935 3.76967 13.9546 3.78069 14.1613 3.87654L14.1615 3.87667C14.1934 3.89184 14.2141 3.91969 14.2265 3.95379C14.2387 3.98744 14.2434 4.02881 14.2429 4.07523C14.2418 4.16815 14.2194 4.28881 14.1828 4.42604C14.1095 4.70104 13.9772 5.05006 13.8339 5.39239C13.6905 5.73499 13.5355 6.07198 13.4165 6.32324C13.357 6.44889 13.3064 6.55315 13.2707 6.62601C13.2564 6.65532 13.2444 6.67955 13.2352 6.69805ZM13.2832 4.17724C13.2829 4.17748 13.2829 4.17751 13.2832 4.17724V4.17724Z" fill="#231F20"/>
<path d="M27.3214 2.8363L21.9947 4.12549C17.5821 5.19786 19.5276 6.72731 19.5276 6.72731L15.3026 7.4305L11.0776 6.72731C11.0776 6.72731 13.0231 5.19786 8.61057 4.12549L3.28387 2.8363C2.5338 2.65464 2.2408 3.03554 2.66272 3.69185C2.66272 3.69185 8.90942 9.7862 10.0931 10.255C11.2768 10.7296 12.484 10.255 12.484 10.255C12.484 10.255 11.6109 10.7648 11.0776 11.6614C10.5385 12.558 10.808 13.6948 8.79808 14.0171C8.47579 14.4038 8.50509 14.8375 8.96802 15.1832C9.43096 15.5231 13.193 12.3646 13.193 12.3646C13.193 12.3646 11.7867 13.7944 11.7867 14.48C11.7867 14.7789 14.3709 17.6327 15.3085 17.6327C16.2461 17.6327 18.8303 14.7789 18.8303 14.48C18.8303 13.7944 17.4239 12.3646 17.4239 12.3646C17.4239 12.3646 21.186 15.5231 21.6489 15.1832C22.1119 14.8433 22.317 14.0522 21.813 14.0171C20.1722 13.9116 20.0726 12.558 19.5335 11.6614C18.9944 10.7648 18.1271 10.255 18.1271 10.255C18.1271 10.255 19.3343 10.7296 20.518 10.255C21.7017 9.78034 27.9425 3.69185 27.9425 3.69185C28.3645 3.03554 28.0773 2.65464 27.3214 2.8363Z" fill="#FFD836"/>
<path fill-rule="evenodd" clip-rule="evenodd" d="M3.28874 2.80783C3.28874 2.80783 3.28874 2.80783 3.28874 2.80783L8.61543 4.09701C9.72012 4.36548 10.4297 4.66317 10.8719 4.9601C11.3144 5.25725 11.4918 5.55556 11.5258 5.82482C11.5597 6.09321 11.4501 6.32527 11.3345 6.48842C11.2765 6.57022 11.2166 6.63546 11.1711 6.68027C11.1603 6.69085 11.1504 6.7003 11.1415 6.70857L15.3006 7.4008L19.4597 6.70857C19.4508 6.7003 19.4409 6.69085 19.4301 6.68027C19.3846 6.63546 19.3247 6.57022 19.2667 6.48842C19.1512 6.32527 19.0416 6.09321 19.0754 5.82482C19.1094 5.55556 19.2868 5.25725 19.7294 4.9601C20.1716 4.66317 20.8811 4.36549 21.9858 4.09702L27.3125 2.80782C27.5038 2.76184 27.6677 2.7509 27.7993 2.77213C27.9311 2.79338 28.0326 2.8473 28.0952 2.93247C28.1578 3.01774 28.1781 3.12979 28.1566 3.26044C28.1352 3.39082 28.0719 3.54147 27.9651 3.70761L27.9633 3.71041L27.9609 3.71273L27.9405 3.6918C27.9609 3.71273 27.9609 3.71275 27.9609 3.7128L27.9607 3.71301L27.943 3.73023C27.9311 3.74177 27.9135 3.7589 27.8905 3.78126C27.8445 3.82598 27.7769 3.89163 27.6904 3.97535C27.5174 4.14279 27.269 4.38251 26.9671 4.67166C26.3635 5.24994 25.5462 6.02595 24.692 6.81683C23.8378 7.60766 22.9464 8.41355 22.1943 9.0515C21.8184 9.37046 21.477 9.64766 21.1923 9.86009C20.9085 10.0719 20.6788 10.2212 20.5268 10.2821C19.9288 10.5219 19.3256 10.5217 18.8728 10.4619C18.6463 10.432 18.457 10.3872 18.3243 10.3498C18.323 10.3495 18.3217 10.3491 18.3204 10.3487C18.4071 10.4098 18.5195 10.4938 18.645 10.5996C18.9307 10.8404 19.2848 11.1943 19.5566 11.6463C19.684 11.8582 19.787 12.0952 19.8904 12.3332C19.8973 12.3492 19.9042 12.3652 19.9112 12.3811C20.022 12.6359 20.1355 12.8904 20.2827 13.12C20.4298 13.3493 20.6101 13.5529 20.854 13.7058C21.0978 13.8586 21.4068 13.9617 21.8129 13.9878L21.813 13.9879C21.9479 13.9973 22.0393 14.0582 22.089 14.1527C22.1376 14.2451 22.144 14.3654 22.1203 14.4912C22.0728 14.743 21.9018 15.0323 21.6642 15.2067C21.6271 15.234 21.5769 15.2414 21.5207 15.2366C21.4641 15.2319 21.3972 15.2144 21.3224 15.1871C21.1727 15.1323 20.986 15.0357 20.7765 14.9113C20.3574 14.6621 19.8427 14.2984 19.3433 13.9247C18.8437 13.5508 18.3587 13.1664 17.9986 12.8755C17.9046 12.7996 17.8192 12.73 17.7442 12.6687C17.8633 12.8021 18.0056 12.9675 18.148 13.147C18.3243 13.3691 18.5011 13.6134 18.6339 13.8457C18.7662 14.0768 18.8575 14.3004 18.8575 14.48C18.8575 14.5064 18.8442 14.5407 18.8251 14.578C18.8051 14.6168 18.7762 14.6639 18.7396 14.7177C18.6664 14.8254 18.5611 14.9622 18.4324 15.1173C18.1748 15.4277 17.8217 15.8132 17.4395 16.1892C17.0573 16.5652 16.6452 16.9323 16.2695 17.2057C16.0817 17.3424 15.9023 17.456 15.7399 17.5357C15.578 17.615 15.4303 17.6619 15.3065 17.6619C15.1827 17.6619 15.035 17.615 14.8731 17.5357C14.7106 17.456 14.5313 17.3424 14.3434 17.2057C13.9677 16.9323 13.5556 16.5652 13.1735 16.1892C12.7912 15.8132 12.4382 15.4277 12.1806 15.1173C12.0518 14.9622 11.9466 14.8254 11.8733 14.7177C11.8368 14.6639 11.8078 14.6168 11.7879 14.578C11.7687 14.5407 11.7554 14.5064 11.7554 14.48C11.7554 14.3004 11.8468 14.0768 11.979 13.8457C12.1119 13.6134 12.2887 13.3691 12.4649 13.147C12.6073 12.9675 12.7497 12.8021 12.8688 12.6687C12.7938 12.73 12.7083 12.7996 12.6143 12.8755C12.2543 13.1664 11.7692 13.5508 11.2696 13.9247C10.7702 14.2984 10.2556 14.6621 9.83641 14.9113C9.62699 15.0357 9.44023 15.1323 9.29051 15.1871C9.21571 15.2144 9.14883 15.2319 9.0922 15.2366C9.03605 15.2414 8.98583 15.234 8.9487 15.2067L8.94851 15.2066C8.71269 15.0305 8.58372 14.8292 8.55756 14.6191C8.53139 14.409 8.6088 14.1961 8.7736 13.9983L8.78062 13.9899L8.79144 13.9882C9.29128 13.908 9.64731 13.7775 9.9089 13.6143C10.1701 13.4512 10.3385 13.2546 10.4621 13.0399C10.5821 12.8314 10.6598 12.6059 10.7392 12.3754C10.7418 12.3679 10.7444 12.3603 10.747 12.3528C10.8288 12.1154 10.9139 11.8735 11.0505 11.6464C11.0505 11.6463 11.0505 11.6463 11.0505 11.6463L11.0755 11.6613L11.0505 11.6464C11.0505 11.6464 11.0505 11.6463 11.0505 11.6464C11.3193 11.1943 11.6735 10.8403 11.9599 10.5995C12.0854 10.4941 12.198 10.4102 12.285 10.3492C12.3503 10.3308 12.4019 10.3142 12.4372 10.3021C12.4551 10.296 12.4689 10.291 12.4782 10.2876C12.4829 10.2859 12.4865 10.2845 12.4889 10.2836L12.4917 10.2826L12.4924 10.2823L12.4926 10.2822L12.4926 10.2822C12.4927 10.2822 12.4927 10.2822 12.482 10.2549C12.4672 10.2297 12.4672 10.2297 12.4672 10.2297L12.467 10.2298L12.4665 10.2301L12.4645 10.2313C12.4628 10.2323 12.4602 10.2339 12.4569 10.2359C12.4502 10.2399 12.4404 10.2459 12.4278 10.2539C12.4026 10.2697 12.3661 10.2934 12.3207 10.3245C12.3093 10.3323 12.2974 10.3405 12.285 10.3492C12.2843 10.3494 12.2835 10.3496 12.2828 10.3498C12.15 10.3872 11.9608 10.432 11.7343 10.4619C11.2815 10.5217 10.6784 10.5219 10.0803 10.2821C10.0803 10.2821 10.0803 10.2821 10.0803 10.2821L10.0911 10.2549L10.0802 10.2821C10.0803 10.2821 10.0803 10.2821 10.0803 10.2821C9.92833 10.2219 9.69845 10.0732 9.41452 9.86179C9.12973 9.64976 8.7881 9.37281 8.41183 9.05399C7.65926 8.41631 6.76709 7.61023 5.91216 6.81903C5.05717 6.02779 4.23922 5.25122 3.63502 4.67248C3.33291 4.38311 3.08424 4.14318 2.91109 3.97559C2.82451 3.8918 2.75682 3.82609 2.71076 3.78132C2.68774 3.75894 2.67012 3.7418 2.65826 3.73025L2.64035 3.7128C2.64031 3.71275 2.64028 3.71273 2.6607 3.6918L2.6853 3.67599C2.6847 3.67505 2.68411 3.67412 2.68351 3.67319L2.69906 3.68835C2.71091 3.69988 2.72851 3.71702 2.75153 3.73939C2.79755 3.78412 2.86522 3.8498 2.95177 3.93357C3.12485 4.1011 3.37345 4.34095 3.67547 4.63025C4.27952 5.20885 5.09722 5.98517 5.95188 6.77611C6.80659 7.56709 7.69804 8.3725 8.44964 9.00936C8.82547 9.32781 9.16606 9.60389 9.44945 9.81488C9.73369 10.0265 9.95795 10.1707 10.1019 10.2278L10.102 10.2278C10.6876 10.4626 11.2799 10.4629 11.7266 10.4039C11.9499 10.3745 12.1364 10.3303 12.2669 10.2935C12.3322 10.2752 12.3835 10.2586 12.4183 10.2467C12.4358 10.2408 12.4491 10.236 12.458 10.2327C12.4625 10.2311 12.4658 10.2298 12.4681 10.229L12.4705 10.228L12.4713 10.2277L12.4967 10.2802L12.4966 10.2803L12.4962 10.2805L12.4944 10.2816C12.4934 10.2822 12.492 10.283 12.4902 10.2841C12.4893 10.2846 12.4883 10.2852 12.4872 10.2859C12.4808 10.2898 12.4713 10.2956 12.459 10.3033C12.4344 10.3188 12.3985 10.3421 12.3537 10.3727C12.2642 10.4341 12.1392 10.5253 11.9976 10.6443C11.7142 10.8825 11.3651 11.2317 11.1007 11.6763L11.1006 11.6764C10.9677 11.8975 10.8843 12.1339 10.8023 12.3719L10.7938 12.3964C10.7149 12.6254 10.6356 12.8556 10.5127 13.0691C10.385 13.291 10.2102 13.4951 9.93987 13.6639C9.6718 13.8312 9.31108 13.963 8.8116 14.0441C8.81389 14.0413 8.8162 14.0385 8.81853 14.0357L8.79607 14.017L8.8007 14.0459C8.80434 14.0453 8.80797 14.0447 8.8116 14.0441C8.65901 14.2306 8.5923 14.4248 8.61559 14.6119C8.63924 14.8017 8.75633 14.99 8.98335 15.1596C8.98334 15.1596 8.98337 15.1596 8.98335 15.1596L8.96601 15.1832L8.9835 15.1597C8.98345 15.1597 8.9834 15.1596 8.98335 15.1596C9.00409 15.1748 9.03751 15.1826 9.08729 15.1784C9.13663 15.1742 9.19804 15.1586 9.27042 15.1322C9.41505 15.0793 9.59815 14.9848 9.80653 14.861C10.223 14.6135 10.7356 14.2513 11.2346 13.8779C11.7334 13.5046 12.2178 13.1207 12.5776 12.83C12.7575 12.6847 12.9061 12.5627 13.0099 12.477C13.0617 12.4342 13.1023 12.4005 13.1299 12.3774C13.1438 12.3659 13.1543 12.3571 13.1615 12.3511L13.1716 12.3427L13.1721 12.3423L13.1722 12.3422C13.1722 12.3421 13.1722 12.3421 13.191 12.3645C13.2119 12.385 13.2119 12.385 13.2119 12.385L13.2109 12.386L13.2079 12.3891C13.2053 12.3918 13.2014 12.3958 13.1962 12.4011C13.186 12.4117 13.171 12.4273 13.1518 12.4474C13.1135 12.4878 13.0587 12.5461 12.9929 12.6183C12.8613 12.7628 12.686 12.9624 12.5107 13.1833C12.3354 13.4043 12.1606 13.646 12.0298 13.8747C11.8983 14.1045 11.8139 14.3167 11.8139 14.48C11.8139 14.4909 11.8207 14.5139 11.8399 14.5513C11.8583 14.5871 11.8858 14.632 11.9217 14.6848C11.9935 14.7903 12.0974 14.9255 12.2256 15.08C12.4818 15.3887 12.8335 15.7727 13.2145 16.1475C13.5955 16.5224 14.0053 16.8873 14.3778 17.1584C14.5641 17.2939 14.7405 17.4055 14.8988 17.4831C15.0577 17.561 15.1959 17.6034 15.3065 17.6034C15.4171 17.6034 15.5552 17.561 15.7141 17.4831C15.8725 17.4055 16.0488 17.2939 16.2351 17.1584C16.6076 16.8873 17.0174 16.5224 17.3985 16.1475C17.7795 15.7727 18.1311 15.3887 18.3874 15.08C18.5155 14.9255 18.6195 14.7903 18.6912 14.6848C18.7272 14.632 18.7546 14.5871 18.773 14.5513C18.7922 14.5139 18.7991 14.4909 18.7991 14.48C18.7991 14.3167 18.7147 14.1045 18.5832 13.8747C18.4524 13.646 18.2776 13.4043 18.1022 13.1833C17.9269 12.9624 17.7516 12.7628 17.62 12.6183C17.5543 12.5461 17.4995 12.4878 17.4612 12.4474C17.4541 12.44 17.4476 12.4333 17.4417 12.4271C17.4316 12.4165 17.4232 12.4078 17.4167 12.4011C17.4116 12.3958 17.4077 12.3918 17.405 12.3891L17.402 12.386L17.4011 12.385C17.4011 12.385 17.4011 12.385 17.4041 12.382L17.4011 12.385L17.4407 12.3421L17.4394 12.3437C17.4407 12.3421 17.4407 12.3421 17.4407 12.3421L17.4409 12.3423L17.4414 12.3427L17.4515 12.3511C17.4586 12.3571 17.4692 12.3659 17.483 12.3774C17.5106 12.4005 17.5512 12.4342 17.6031 12.477C17.7068 12.5627 17.8555 12.6847 18.0353 12.83C18.3951 13.1207 18.8795 13.5046 19.3783 13.8779C19.8773 14.2513 20.39 14.6135 20.8064 14.861C21.0148 14.9848 21.1979 15.0793 21.3425 15.1322C21.4149 15.1586 21.4763 15.1742 21.5257 15.1784C21.5755 15.1826 21.6089 15.1748 21.6296 15.1596C21.855 14.9941 22.018 14.7179 22.0628 14.4804C22.0852 14.3616 22.0774 14.2563 22.0372 14.1799C21.9981 14.1055 21.9261 14.0544 21.8091 14.0462C21.3948 14.0196 21.0761 13.914 20.8229 13.7553C20.5698 13.5967 20.3839 13.386 20.2335 13.1516C20.0834 12.9176 19.9683 12.659 19.8576 12.4045C19.8507 12.3888 19.8439 12.3732 19.8371 12.3575C19.7333 12.1186 19.6318 11.8849 19.5064 11.6764C19.2391 11.2318 18.89 10.8825 18.6073 10.6443C18.466 10.5252 18.3415 10.434 18.2525 10.3727C18.2079 10.342 18.1723 10.3188 18.1478 10.3033C18.1407 10.2988 18.1345 10.2949 18.1293 10.2917C18.1256 10.2894 18.1224 10.2875 18.1198 10.2859C18.1166 10.2839 18.1142 10.2825 18.1126 10.2815L18.1108 10.2805L18.1104 10.2802L18.1103 10.2802L18.1358 10.2278L18.136 10.2278L18.1365 10.228L18.139 10.229C18.1412 10.2298 18.1446 10.2311 18.1491 10.2327C18.158 10.236 18.1713 10.2408 18.1887 10.2467C18.2236 10.2586 18.2749 10.2752 18.3401 10.2935C18.4707 10.3303 18.6572 10.3745 18.8805 10.4039C19.3272 10.4629 19.9194 10.4626 20.5051 10.2278C20.6491 10.1701 20.8733 10.0252 21.1574 9.81322C21.4406 9.60182 21.781 9.32549 22.1565 9.0069C22.9076 8.36976 23.7983 7.56454 24.6523 6.77391C25.5062 5.98334 26.3232 5.20757 26.9267 4.62942C27.2284 4.34036 27.4768 4.10071 27.6497 3.93333C27.7362 3.84964 27.8038 3.78402 27.8498 3.73932C27.8728 3.71697 27.8903 3.69986 27.9022 3.68833L27.9177 3.67319C28.0208 3.51233 28.0793 3.3702 28.0989 3.25094C28.1186 3.13126 28.099 3.03638 28.0481 2.9671C27.9971 2.89771 27.9114 2.84945 27.79 2.82987C27.6684 2.81026 27.5128 2.81983 27.3262 2.86467M27.3262 2.86467L21.9996 4.15385C20.898 4.42157 20.196 4.7172 19.762 5.00865C19.3283 5.29987 19.1647 5.585 19.1335 5.83214C19.1022 6.08016 19.2031 6.29749 19.3145 6.45462C19.37 6.53296 19.4275 6.59559 19.4712 6.63861C19.493 6.6601 19.5113 6.67664 19.5241 6.68775C19.5304 6.69331 19.5354 6.6975 19.5388 6.70028C19.5405 6.70166 19.5417 6.70269 19.5426 6.70336L19.5435 6.70409L19.5437 6.70424L19.5958 6.74522L15.3006 7.46009L11.0054 6.74522L11.0575 6.70427L11.0577 6.70409L11.0586 6.70336C11.0595 6.70269 11.0607 6.70166 11.0624 6.70028C11.0658 6.6975 11.0708 6.69331 11.0772 6.68775C11.0899 6.67664 11.1082 6.6601 11.13 6.63861C11.1737 6.59559 11.2313 6.53296 11.2868 6.45462C11.3981 6.29749 11.4991 6.08016 11.4678 5.83214C11.4366 5.585 11.273 5.29987 10.8393 5.00865C10.4052 4.7172 9.70324 4.42157 8.60167 4.15386M8.60167 4.15386L3.27498 2.86467C3.08985 2.81983 2.93502 2.81026 2.8137 2.82986C2.69254 2.84944 2.60665 2.89771 2.5553 2.96717C2.50403 3.03652 2.4839 3.13142 2.50315 3.25104C2.52234 3.37026 2.58049 3.51236 2.68351 3.67319L2.68119 3.67094C2.68115 3.67089 2.68112 3.67087 2.6607 3.6918L2.64028 3.71273L2.6379 3.71041L2.6361 3.70761C2.52928 3.54144 2.4664 3.39076 2.44541 3.26034C2.42438 3.12963 2.44527 3.01761 2.50827 2.9324C2.57119 2.8473 2.67282 2.79339 2.80437 2.77213C2.93576 2.7509 3.09883 2.76183 3.28874 2.80783M13.191 12.3645L13.2119 12.385L13.1722 12.3422L13.191 12.3645Z" fill="#231F20"/>
<path d="M11.8047 6.55078V11.2559C11.8047 13.9336 15.3027 14.7539 15.3027 14.7539C15.3027 14.7539 18.8008 13.9336 18.8008 11.2559V6.55078H11.8047Z" fill="white"/>
<path fill-rule="evenodd" clip-rule="evenodd" d="M11.8027 6.52148H18.828V11.2558C18.828 12.6095 17.9433 13.4918 17.0651 14.0339C16.6257 14.3051 16.1865 14.4921 15.8572 14.6113C15.6926 14.6709 15.5553 14.7136 15.4592 14.7415C15.4111 14.7554 15.3732 14.7656 15.3474 14.7723C15.3344 14.7756 15.3245 14.7781 15.3178 14.7798C15.3144 14.7806 15.3118 14.7813 15.3101 14.7817L15.3081 14.7821L15.3076 14.7823L15.3075 14.7823C15.3074 14.7823 15.3074 14.7823 15.3007 14.7538C15.294 14.7823 15.294 14.7823 15.294 14.7823L15.2938 14.7823L15.2933 14.7821L15.2913 14.7817C15.2896 14.7813 15.287 14.7806 15.2837 14.7798C15.2769 14.7781 15.267 14.7756 15.2541 14.7723C15.2282 14.7656 15.1904 14.7554 15.1423 14.7415C15.0461 14.7136 14.9089 14.6709 14.7442 14.6113C14.415 14.4921 13.9758 14.3051 13.5363 14.0339C12.6581 13.4918 11.7734 12.6095 11.7734 11.2558V6.55072H11.8027V6.52148ZM11.8319 6.57996V11.2558C11.8319 12.5799 12.6963 13.4466 13.5671 13.9841C14.0021 14.2526 14.4374 14.4381 14.7641 14.5563C14.9274 14.6155 15.0634 14.6578 15.1585 14.6853C15.2061 14.699 15.2434 14.7091 15.2688 14.7157C15.2815 14.719 15.2912 14.7214 15.2977 14.723C15.2988 14.7233 15.2998 14.7235 15.3007 14.7238C15.3016 14.7235 15.3027 14.7233 15.3038 14.723C15.3103 14.7214 15.32 14.719 15.3327 14.7157C15.358 14.7091 15.3954 14.699 15.4429 14.6853C15.538 14.6578 15.674 14.6155 15.8373 14.5563C16.164 14.4381 16.5993 14.2526 17.0344 13.9841C17.9052 13.4466 18.7695 12.5799 18.7695 11.2558V6.57996H11.8319ZM15.3007 14.7538L15.294 14.7823L15.3007 14.7839L15.3074 14.7823L15.3007 14.7538Z" fill="#231F20"/>
<path d="M13.2031 8.06836V13.7695C13.6836 14.1211 14.1992 14.3672 14.6035 14.5254V8.06836H13.2031ZM17.3984 8.06836V13.7695C16.918 14.1211 16.4023 14.3672 15.998 14.5254V8.06836H17.3984Z" fill="#D80027"/>
<path d="M11.8047 6.55078H18.8008V8.77148H11.8047V6.55078Z" fill="#0052B4"/>
<path d="M3.5315 12.3343L2.24818 8.92969H0.929688L2.79315 13.6645H4.26986L6.11574 8.92969H4.79725L3.5315 12.3343ZM26.4673 8.90039H27.5749V13.688H26.4673V8.90039Z" fill="#1583C4"/>
</g>
<defs>
<clipPath id="clip0_162_15381">
<rect x="0.0078125" width="30.0029" height="20" rx="4" fill="white"/>
</clipPath>
</defs>
</svg>
