<svg width="30" height="20" viewBox="0 0 30 20" fill="none" xmlns="http://www.w3.org/2000/svg">
<g clip-path="url(#clip0_162_16778)">
<path d="M0 0H30.0029V20H0V0Z" fill="#003E87"/>
<path d="M15.2878 16.9818C19.1358 16.9818 22.2553 13.8624 22.2553 10.0144C22.2553 6.16632 19.1358 3.04688 15.2878 3.04688C11.4398 3.04688 8.32031 6.16632 8.32031 10.0144C8.32031 13.8624 11.4398 16.9818 15.2878 16.9818Z" fill="white"/>
<path fill-rule="evenodd" clip-rule="evenodd" d="M15.3453 5.13281C12.5776 5.13281 10.334 7.37644 10.334 10.1441C10.334 12.9118 12.5776 15.1554 15.3453 15.1554C18.1129 15.1554 20.3566 12.9118 20.3566 10.1441C20.3566 7.37644 18.1129 5.13281 15.3453 5.13281ZM9.28125 10.1441C9.28125 6.79503 11.9962 4.08008 15.3453 4.08008C18.6943 4.08008 21.4093 6.79503 21.4093 10.1441C21.4093 13.4932 18.6943 16.2081 15.3453 16.2081C11.9962 16.2081 9.28125 13.4932 9.28125 10.1441Z" fill="#6DA544"/>
<path d="M15.3477 8.87695L12.3828 10.248V11.4199C12.3828 12.1113 12.7402 12.7559 13.332 13.1133L15.3535 14.0039L17.375 13.1133C17.9609 12.75 18.3242 12.1113 18.3242 11.4199V10.248L15.3477 8.87695Z" fill="#003E87"/>
<path fill-rule="evenodd" clip-rule="evenodd" d="M15.3456 8.84375L18.3514 10.2283V11.4189C18.3514 12.1207 17.9828 12.7686 17.3884 13.1371L17.3867 13.1382L15.3515 14.0349L13.3165 13.1383L13.3149 13.1373C12.7142 12.7745 12.3516 12.1204 12.3516 11.4189V10.2284L15.3456 8.84375ZM15.3457 8.90816L12.41 10.2657V11.4189C12.41 12.0996 12.7616 12.7341 13.3435 13.0863L15.3515 13.971L17.3593 13.0864C17.9358 12.7281 18.293 12.0993 18.293 11.4189V10.2658L15.3457 8.90816Z" fill="black"/>
<path d="M12.3828 7.50586H18.3184V10.2422H12.3828V7.50586Z" fill="#FFDA44"/>
<path fill-rule="evenodd" clip-rule="evenodd" d="M12.3516 7.47656H18.3456V10.2714H12.3516V7.47656ZM12.41 7.53504V10.2129H18.2871V7.53504H12.41Z" fill="black"/>
<path d="M0 0H30.0029V2.05098H0V0ZM0 17.9314H30.0029V19.9824H0V17.9314Z" fill="#CE1127"/>
</g>
<defs>
<clipPath id="clip0_162_16778">
<rect width="30.0029" height="20" rx="4" fill="white"/>
</clipPath>
</defs>
</svg>
