<svg width="30" height="20" viewBox="0 0 30 20" fill="none" xmlns="http://www.w3.org/2000/svg">
<g clip-path="url(#clip0_162_15581)">
<path d="M0 0H30.0029V20H0V0Z" fill="#0052B4"/>
<path d="M15.0015 0V6.87958H12.3L15.0015 8.67858V10.0029H13.6771L9.37592 7.13742V10.0029H5.62555V7.13742L1.32435 10.0029H0V8.67858L2.70144 6.87958H0V3.12921H2.70144L0 1.33021V0H1.32435L5.62555 2.86551V0H9.37592V2.86551L13.6771 0H15.0015Z" fill="white"/>
<path d="M8.43832 0H6.56314V4.0668H0V5.94199H6.56314V10.0029H8.43832V5.94199H15.0015V4.0668H8.43832V0Z" fill="#D80027"/>
<path d="M0 0V0.884852L3.36361 3.12921H4.68796L0 0ZM15.0015 0V0.884852L11.6379 3.12921H10.3135L15.0015 0Z" fill="#D80027"/>
<path d="M14.998 1.33008V3.12891H12.2969L14.998 1.33008Z" fill="#2E52B2"/>
<path d="M0 0V0.884852L3.36361 3.12921H4.68796L0 0ZM15.0015 0V0.884852L11.6379 3.12921H10.3135L15.0015 0Z" fill="#D80027"/>
<path d="M14.998 1.33008V3.12891H12.2969L14.998 1.33008Z" fill="#2E52B2"/>
<path d="M0 10.0023V9.11741L3.36361 6.87891H4.68796L0 10.0023ZM15.0015 10.0023V9.11741L11.6379 6.87891H10.3135L15.0015 10.0023Z" fill="#D80027"/>
<path d="M26.3066 9.93164C26.3066 10.4941 26.2891 11.666 26.2246 12.2285C25.9844 14.2734 24.8477 16.2598 22.5859 17.2617C19.9316 16.2129 19.0234 14.2734 18.7832 12.2285C18.7188 11.666 18.6953 11.0918 18.6953 10.5293L18.7129 7.76953H26.2832L26.3066 9.93164Z" fill="#29DBFF"/>
<path d="M26.2246 12.2305C26.2129 12.3242 26.2012 12.4238 26.1895 12.5176C25.9082 14.457 24.8477 16.3496 22.5859 17.2637C20.0547 16.2676 19.1055 14.457 18.8242 12.5176C18.8125 12.4238 18.8008 12.3301 18.7891 12.2305" fill="white"/>
<path d="M22.584 14.75L21.2422 12.2305H23.9258L22.584 14.75Z" fill="#29DBFF"/>
<path d="M22.584 9.71484L21.2422 12.2285H23.9258L22.584 9.71484Z" fill="white"/>
<path d="M27.8203 16.4141C28.364 16.4141 28.8047 15.2782 28.8047 13.877C28.8047 12.4757 28.364 11.3398 27.8203 11.3398C27.2767 11.3398 26.8359 12.4757 26.8359 13.877C26.8359 15.2782 27.2767 16.4141 27.8203 16.4141Z" fill="#FFBE57"/>
<path d="M17.3047 16.4141C17.8483 16.4141 18.2891 15.2782 18.2891 13.877C18.2891 12.4757 17.8483 11.3398 17.3047 11.3398C16.761 11.3398 16.3203 12.4757 16.3203 13.877C16.3203 15.2782 16.761 16.4141 17.3047 16.4141Z" fill="#FFBE57"/>
<path d="M22.5864 1.8457L20.6292 4.42408H24.6432L22.5864 1.8457ZM18.4903 16.4077C18.4903 16.4077 20.4709 18.1364 22.5864 18.1364C24.7018 18.1364 26.5184 16.4077 26.5184 16.4077L27.0165 17.2632C27.0165 17.2632 25.739 19.1032 22.5864 19.1032C19.4337 19.1032 17.9922 17.2632 17.9922 17.2632L18.4903 16.4077Z" fill="white"/>
<path d="M22.6348 7.47656C23.7447 7.47656 24.6445 6.86533 24.6445 6.11133C24.6445 5.35733 23.7447 4.74609 22.6348 4.74609C21.5248 4.74609 20.625 5.35733 20.625 6.11133C20.625 6.86533 21.5248 7.47656 22.6348 7.47656Z" fill="#A5A5A5"/>
</g>
<defs>
<clipPath id="clip0_162_15581">
<rect width="30.0029" height="20" rx="4" fill="white"/>
</clipPath>
</defs>
</svg>
