<svg width="30" height="20" viewBox="0 0 30 20" fill="none" xmlns="http://www.w3.org/2000/svg">
<g clip-path="url(#clip0_162_16099)">
<path d="M0 0H30V19.9996H0V0Z" fill="black"/>
<path d="M0 0H30V6.6665H0V0Z" fill="#D80027"/>
<path d="M0 13.334H30V20.0005H0V13.334Z" fill="#496E2D"/>
<path d="M16.4838 8.83008L17.0089 9.55371L17.8593 9.27797L17.3334 10.001L17.8585 10.7245L17.0084 10.4477L16.4824 11.1708L16.483 10.2768L15.6328 9.9999L16.4832 9.72416L16.4838 8.83008Z" fill="white"/>
<path d="M15.0545 11.8081C14.0556 11.8081 13.2459 10.9983 13.2459 9.99947C13.2459 9.00062 14.0557 8.1908 15.0545 8.1908C15.355 8.19038 15.6507 8.2651 15.9149 8.40818C15.5135 8.01572 14.9646 7.77344 14.3589 7.77344C13.1295 7.77344 12.1328 8.77012 12.1328 9.99953C12.1328 11.2289 13.1295 12.2256 14.3589 12.2256C14.9646 12.2256 15.5136 11.9833 15.9149 11.5909C15.6507 11.7339 15.355 11.8086 15.0545 11.8081Z" fill="white"/>
</g>
<defs>
<clipPath id="clip0_162_16099">
<rect width="30" height="20" rx="4" fill="white"/>
</clipPath>
</defs>
</svg>
