<svg width="30" height="20" viewBox="0 0 30 20" fill="none" xmlns="http://www.w3.org/2000/svg">
<g clip-path="url(#clip0_162_15452)">
<path d="M0 0H30V20H0V0Z" fill="white"/>
<path d="M0 0H30V1.53801H0V0ZM0 3.07602H30V4.61404H0V3.07602ZM0 6.15205H30V7.69006H0V6.15205ZM0 9.22807H30V10.7661H0V9.22807ZM0 12.3099H30V13.848H0V12.3099ZM0 15.386H30V16.924H0V15.386ZM0 18.462H30V20H0V18.462Z" fill="#D80027"/>
<path d="M0 0H15V10.7661H0V0Z" fill="#2E52B2"/>
<path d="M2.79441 8.12367L2.56049 7.37514L2.30318 8.12367H1.53125L2.15698 8.57397L1.92306 9.32251L2.56049 8.86052L3.18037 9.32251L2.94061 8.57397L3.57803 8.12367H2.79441ZM6.08681 8.12367L5.84704 7.37514L5.60143 8.12367H4.8295L5.45523 8.57397L5.22131 9.32251L5.84704 8.86052L6.47862 9.32251L6.2447 8.57397L6.87043 8.12367H6.08681ZM9.3909 8.12367L9.13944 7.37514L8.90552 8.12367H8.11605L8.75932 8.57397L8.51371 9.32251L9.13944 8.86052L9.78271 9.32251L9.5371 8.57397L10.1628 8.12367H9.3909ZM12.6774 8.12367L12.4435 7.37514L12.1979 8.12367H11.4201L12.0517 8.57397L11.8178 9.32251L12.4435 8.86052L13.0751 9.32251L12.8236 8.57397L13.4669 8.12367H12.6774ZM5.84704 4.40438L5.60143 5.15291H4.8295L5.45523 5.6149L5.22131 6.35175L5.84704 5.89561L6.47862 6.35175L6.2447 5.6149L6.87043 5.15291H6.08681L5.84704 4.40438ZM2.56049 4.40438L2.30318 5.15291H1.53125L2.15698 5.6149L1.92306 6.35175L2.56049 5.89561L3.18037 6.35175L2.94061 5.6149L3.57803 5.15291H2.79441L2.56049 4.40438ZM9.13944 4.40438L8.90552 5.15291H8.11605L8.75932 5.6149L8.51371 6.35175L9.13944 5.89561L9.78271 6.35175L9.5371 5.6149L10.1628 5.15291H9.3909L9.13944 4.40438ZM12.4435 4.40438L12.1979 5.15291H11.4201L12.0517 5.6149L11.8178 6.35175L12.4435 5.89561L13.0751 6.35175L12.8236 5.6149L13.4669 5.15291H12.6774L12.4435 4.40438ZM2.56049 1.44531L2.30318 2.18215H1.53125L2.15698 2.64414L1.92306 3.38683L2.56049 2.92484L3.18037 3.38683L2.94061 2.64414L3.57803 2.18215H2.79441L2.56049 1.44531ZM5.84704 1.44531L5.60143 2.18215H4.8295L5.45523 2.64414L5.22131 3.38683L5.84704 2.92484L6.47862 3.38683L6.2447 2.64414L6.87043 2.18215H6.08681L5.84704 1.44531ZM9.13944 1.44531L8.90552 2.18215H8.11605L8.75932 2.64414L8.51371 3.38683L9.13944 2.92484L9.78271 3.38683L9.5371 2.64414L10.1628 2.18215H9.3909L9.13944 1.44531ZM12.4435 1.44531L12.1979 2.18215H11.4201L12.0517 2.64414L11.8178 3.38683L12.4435 2.92484L13.0751 3.38683L12.8236 2.64414L13.4669 2.18215H12.6774L12.4435 1.44531Z" fill="white"/>
</g>
<defs>
<clipPath id="clip0_162_15452">
<rect width="30" height="20" rx="4" fill="white"/>
</clipPath>
</defs>
</svg>
