<svg width="31" height="20" viewBox="0 0 31 20" fill="none" xmlns="http://www.w3.org/2000/svg">
<g clip-path="url(#clip0_162_15975)">
<path d="M20.9453 0H0.945312V19.9591H30.9453V0H20.9453Z" fill="#DC2339"/>
<path d="M0.945312 0H10.9453V20H0.945312V0Z" fill="#11865D"/>
<path d="M10.9453 0H20.9453V20H10.9453V0Z" fill="white"/>
<path d="M12.3984 10.0123C12.3984 11.2754 13.071 12.4509 14.1704 13.0825C14.5095 13.2813 14.9423 13.1643 15.1411 12.8252C15.34 12.486 15.223 12.0532 14.8838 11.8544C14.223 11.4743 13.8195 10.7725 13.8195 10.0123C13.8195 9.62048 13.5037 9.30469 13.1119 9.30469C12.7201 9.30469 12.3984 9.62048 12.3984 10.0123ZM17.8604 13.0006C18.8838 12.3515 19.4979 11.2228 19.4979 10.0123C19.4979 9.62048 19.1821 9.30469 18.7903 9.30469C18.3984 9.30469 18.0826 9.62048 18.0826 10.0123C18.0826 10.7374 17.7142 11.4158 17.1002 11.8076C16.7669 12.0123 16.6616 12.445 16.8604 12.7842C17.0593 13.1234 17.4979 13.2228 17.837 13.024C17.837 13.0123 17.8487 13.0064 17.8604 13.0006Z" fill="#8C9157"/>
<path d="M15.9445 11.4331C16.7293 11.4331 17.3655 10.4801 17.3655 9.30444C17.3655 8.12881 16.7293 7.17578 15.9445 7.17578C15.1597 7.17578 14.5234 8.12881 14.5234 9.30444C14.5234 10.4801 15.1597 11.4331 15.9445 11.4331Z" fill="#C59262"/>
</g>
<defs>
<clipPath id="clip0_162_15975">
<rect x="0.945312" width="30" height="20" rx="4" fill="white"/>
</clipPath>
</defs>
</svg>
