<svg width="30" height="20" viewBox="0 0 30 20" fill="none" xmlns="http://www.w3.org/2000/svg">
<g clip-path="url(#clip0_162_15683)">
<path d="M0 0H30V19.9996H0V0Z" fill="white"/>
<path d="M0 6.66602H30V13.3325H0V6.66602Z" fill="#0052B4"/>
<path d="M0 13.334H30V20.0005H0V13.334Z" fill="#D80027"/>
<path d="M13.6869 6.5227V7.39205C13.6869 9.38898 11.0781 10.0008 11.0781 10.0008C11.0781 10.0008 8.46943 9.38904 8.46943 7.39205V6.5227L8.46094 3.93356L13.6783 3.91797L13.6869 6.5227Z" fill="white"/>
<path d="M13.6869 6.5227V7.39205C13.6869 9.38898 11.0781 10.0008 11.0781 10.0008C11.0781 10.0008 8.46943 9.38904 8.46943 7.39205V6.5227L8.46094 3.93356L13.6783 3.91797L13.6869 6.5227Z" fill="#0052B4"/>
<path d="M13.6862 6.52094V7.39029C13.6862 9.38723 11.0775 9.999 11.0775 9.999C11.0775 9.999 8.46875 9.38728 8.46875 7.39029V6.52094L9.33875 7.39029L11.0775 6.08594L12.8168 7.39029L13.6862 6.52094Z" fill="white"/>
</g>
<defs>
<clipPath id="clip0_162_15683">
<rect width="30" height="20" rx="4" fill="white"/>
</clipPath>
</defs>
</svg>
