<svg width="30" height="20" viewBox="0 0 30 20" fill="none" xmlns="http://www.w3.org/2000/svg">
<g clip-path="url(#clip0_162_16191)">
<path d="M0.0078125 0H30.0078V20.0002H0.0078125V0Z" fill="#91DC5A"/>
<path d="M0.0078125 0H30.0078V20.0002H0.0078125V0Z" fill="white"/>
<path d="M0.0078125 0H30.0078V3.35086H0.0078125V0ZM0.0078125 16.6494H30.0078V19.9996H0.0078125V16.6494Z" fill="#0052B4"/>
<path d="M0.0078125 4.67969H30.0078V15.3193H0.0078125V4.67969Z" fill="#D80027"/>
<path d="M11.1602 13.8478C13.2853 13.8478 15.008 12.1251 15.008 10.0001C15.008 7.87503 13.2853 6.15234 11.1602 6.15234C9.03519 6.15234 7.3125 7.87503 7.3125 10.0001C7.3125 12.1251 9.03519 13.8478 11.1602 13.8478Z" fill="white"/>
<path d="M11.1596 6.15234L12.0229 8.80934H14.8212L12.5565 10.4516L13.4266 13.1165L11.1596 11.4665L8.89605 13.1134L9.76266 10.4516L7.5 8.80934H10.2962L11.1596 6.15234Z" fill="#D80027"/>
</g>
<defs>
<clipPath id="clip0_162_16191">
<rect x="0.0078125" width="30" height="20" rx="4" fill="white"/>
</clipPath>
</defs>
</svg>
