<svg width="31" height="20" viewBox="0 0 31 20" fill="none" xmlns="http://www.w3.org/2000/svg">
<g clip-path="url(#clip0_162_15671)">
<path d="M0.945312 0H30.9453V19.9996H0.945312V0Z" fill="white"/>
<path d="M0.945312 6.52148H30.9453V13.4776H0.945312V6.52148Z" fill="#0052B4"/>
<path d="M0.945312 13.4785H30.9453V20.0002H0.945312V13.4785Z" fill="#D80027"/>
<path d="M8.53125 5.65234V10.6408C8.53125 13.4784 12.2383 14.3478 12.2383 14.3478C12.2383 14.3478 15.9452 13.4783 15.9452 10.6408V5.65234H8.53125Z" fill="white"/>
<path d="M9.50781 5.79883V10.6001C9.50781 10.9207 9.579 11.2235 9.7201 11.5074H14.7574C14.8985 11.2236 14.9697 10.9207 14.9697 10.6001V5.79883H9.50781Z" fill="#D80027"/>
<path d="M13.9102 9.14551H12.6548V8.30861H13.4918V7.47172H12.6548V6.63477H11.8179V7.47172H10.9811V8.30861H11.8179V9.14551H10.5625V9.98246H11.8179V10.8194H12.6548V9.98246H13.9102V9.14551Z" fill="white"/>
<path d="M10.8602 12.6761C11.3995 13.0149 11.9535 13.2118 12.2372 13.2993C12.5209 13.2117 13.075 13.015 13.6143 12.6761C14.1582 12.3343 14.5395 11.9433 14.7559 11.5078C14.509 11.3327 14.2138 11.2389 13.9111 11.2392C13.7965 11.2392 13.6852 11.2528 13.5782 11.2777C13.3514 10.7623 12.8365 10.4023 12.2373 10.4023C11.6381 10.4023 11.1233 10.7623 10.8965 11.2777C10.7873 11.2522 10.6756 11.2393 10.5636 11.2392C10.2609 11.2389 9.96565 11.3327 9.71875 11.5078C9.93502 11.9433 10.3163 12.3343 10.8602 12.6761Z" fill="#0052B4"/>
</g>
<defs>
<clipPath id="clip0_162_15671">
<rect x="0.945312" width="30" height="20" rx="4" fill="white"/>
</clipPath>
</defs>
</svg>
