<svg width="31" height="20" viewBox="0 0 31 20" fill="none" xmlns="http://www.w3.org/2000/svg">
<g clip-path="url(#clip0_162_15864)">
<path d="M0.9375 0H30.9375V20.0002H0.9375V0Z" fill="#0052B4"/>
<path d="M25.8605 8.69574L26.059 9.30676H26.7014L26.1817 9.68434L26.3802 10.2953L25.8605 9.91772L25.3407 10.2953L25.5393 9.68434L25.0195 9.30676H25.6619L25.8605 8.69574ZM23.564 13.0945L23.8618 14.011H24.8254L24.0458 14.5774L24.3436 15.4938L23.564 14.9274L22.7844 15.4938L23.0822 14.5774L22.3027 14.011H23.2662L23.564 13.0945ZM23.6508 5.89648L23.899 6.66031H24.702L24.0523 7.13223L24.3004 7.89594L23.6508 7.42391L23.0011 7.89594L23.2492 7.13223L22.5996 6.66031H23.4026L23.6508 5.89648ZM21.4411 8.66914L21.7389 9.58561H22.7025L21.9229 10.152L22.2207 11.0684L21.4411 10.5021L20.6615 11.0684L20.9593 10.152L20.1797 9.58561H21.1433L21.4411 8.66914Z" fill="#D80027"/>
<path d="M15.9375 0V1.79086L13.2904 3.26086H15.9375V6.73892H12.4738L15.9375 8.6635V9.99978H14.3736L10.0679 7.60764V9.99978H6.80707V7.15371L1.68428 9.99978H0.9375V8.20957L3.58406 6.73892H0.9375V3.26086H4.40057L0.9375 1.33699V0H2.50078L6.80707 2.39285V0H10.0679V2.84607L15.1908 0H15.9375Z" fill="white"/>
<path d="M9.375 0H7.5V4.06254H0.9375V5.93754H7.5V10.0001H9.375V5.93754H15.9375V4.06254H9.375V0Z" fill="#D80027"/>
<path d="M10.0703 6.73828L15.9399 9.99926V9.07705L11.7301 6.73828H10.0703Z" fill="#0052B4"/>
<path d="M10.0703 6.73828L15.9399 9.99926V9.07705L11.7301 6.73828H10.0703Z" fill="white"/>
<path d="M10.0679 6.73828L15.9375 9.99926V9.07705L11.7277 6.73828H10.0679ZM5.14723 6.73828L0.9375 9.07705V9.99926L6.80707 6.73828H5.14723Z" fill="#D80027"/>
<path d="M6.80707 3.26092L0.9375 0V0.922148L5.14729 3.26092H6.80707Z" fill="#0052B4"/>
<path d="M6.80707 3.26092L0.9375 0V0.922148L5.14729 3.26092H6.80707Z" fill="white"/>
<path d="M6.80707 3.26092L0.9375 0V0.922148L5.14729 3.26092H6.80707ZM11.7278 3.26092L15.9375 0.922148V0L10.0679 3.26092H11.7278Z" fill="#D80027"/>
</g>
<defs>
<clipPath id="clip0_162_15864">
<rect x="0.9375" width="30" height="20" rx="4" fill="white"/>
</clipPath>
</defs>
</svg>
