<svg width="31" height="20" viewBox="0 0 31 20" fill="none" xmlns="http://www.w3.org/2000/svg">
<g clip-path="url(#clip0_162_16236)">
<path d="M0.945312 0H30.9453V20.0002H0.945312V0Z" fill="white"/>
<path d="M0.945312 0H30.9453V5.30736H0.945312V0Z" fill="black"/>
<path d="M0.945312 14.6934H30.9453V20.0001H0.945312V14.6934Z" fill="#496E2D"/>
<path d="M0.945312 6.63672H30.9453V13.3632H0.945312V6.63672Z" fill="#A2001D"/>
<path d="M19.8904 3.19193L18.3914 2.5L15.9491 8.0302L13.5068 2.5L12.0078 3.19193L15.04 10L12.0078 16.8081L13.5068 17.5L15.9491 11.9699L18.3914 17.5L19.8904 16.8081L16.8583 10L19.8904 3.19193Z" fill="white"/>
<path d="M16.9659 3.84373C16.3856 3.20998 15.9478 2.8457 15.9478 2.8457C15.9478 2.8457 15.51 3.20992 14.9297 3.84367V16.1558C15.51 16.7896 15.9478 17.1539 15.9478 17.1539C15.9478 17.1539 16.3856 16.7897 16.9659 16.1559V3.84373Z" fill="white"/>
<path d="M13.1953 6.20418V13.7941C13.8085 14.8806 14.559 15.7712 15.1214 16.3616V3.63672C14.559 4.22711 13.8084 5.11768 13.1953 6.20418ZM18.6984 6.20418C18.0853 5.11768 17.3347 4.22711 16.7723 3.63672V16.3616C17.3348 15.7712 18.0853 14.8806 18.6984 13.7942V6.20418Z" fill="#A2001D"/>
<path d="M18.6975 6.20508V13.795C19.3182 12.695 19.7981 11.3943 19.7981 10.0001C19.7981 8.6059 19.3182 7.30518 18.6975 6.20508ZM13.1944 6.20508V13.795C12.5736 12.695 12.0938 11.3943 12.0938 10.0001C12.0938 8.6059 12.5736 7.30518 13.1944 6.20508Z" fill="black"/>
</g>
<defs>
<clipPath id="clip0_162_16236">
<rect x="0.945312" width="30" height="20" rx="4" fill="white"/>
</clipPath>
</defs>
</svg>
