<svg width="31" height="20" viewBox="0 0 31 20" fill="none" xmlns="http://www.w3.org/2000/svg">
<g clip-path="url(#clip0_162_16077)">
<path d="M0.945312 0H30.9453V20H0.945312V0Z" fill="#003787"/>
<path d="M0.945312 0H30.9453L17.612 13.3333V20H14.2786V13.3333L0.945312 0Z" fill="white"/>
<path d="M15.9488 10.5558C17.1761 10.5558 18.171 9.56085 18.171 8.33355C18.171 7.10625 17.1761 6.11133 15.9488 6.11133C14.7215 6.11133 13.7266 7.10625 13.7266 8.33355C13.7266 9.56085 14.7215 10.5558 15.9488 10.5558Z" fill="#F9D90F"/>
<path d="M13.1641 8.33398H18.7196L15.9418 13.334L13.1641 8.33398Z" fill="white"/>
<path d="M15.9444 13.3327L11.5 9.16602H20.3889L15.9444 13.3327Z" fill="#CF142B"/>
</g>
<defs>
<clipPath id="clip0_162_16077">
<rect x="0.945312" width="30" height="20" rx="4" fill="white"/>
</clipPath>
</defs>
</svg>
