<svg width="30" height="20" viewBox="0 0 30 20" fill="none" xmlns="http://www.w3.org/2000/svg">
<g clip-path="url(#clip0_162_16543)">
<path d="M0 0H30.0029V20H0V0Z" fill="#338AF3"/>
<path d="M15.0008 2.2207L15.5926 4.04901H17.5205L15.9618 5.17998L16.5595 7.00828L15.0008 5.87731L13.442 7.00828L14.0397 5.17998L12.481 4.04901H14.4089L15.0008 2.2207ZM7.21875 10.0027L9.04705 9.405V7.48294L10.178 9.04168L12.0063 8.44397L10.8754 10.0027L12.0063 11.5556L10.178 10.9637L9.04705 12.5166V10.5946L7.21875 10.0027ZM15.0008 17.7847L14.4089 15.9564H12.481L14.0397 14.8255L13.442 12.9913L15.0008 14.1223L16.5595 12.9913L15.9618 14.8255L17.5205 15.9564H15.5926L15.0008 17.7847ZM22.7828 10.0027L20.9545 10.5946V12.5166L19.8235 10.9637L17.9952 11.5556L19.1262 10.0027L17.9952 8.44397L19.8235 9.04168L20.9545 7.48294V9.405L22.7828 10.0027Z" fill="white"/>
</g>
<defs>
<clipPath id="clip0_162_16543">
<rect width="30.0029" height="20" rx="4" fill="white"/>
</clipPath>
</defs>
</svg>
