<svg width="30" height="20" viewBox="0 0 30 20" fill="none" xmlns="http://www.w3.org/2000/svg">
<g clip-path="url(#clip0_162_16118)">
<path d="M0.0078125 0H30.0078V20H0.0078125V0Z" fill="white"/>
<path d="M0.0078125 0H30.0078V6.66667H0.0078125V0Z" fill="#0052B4"/>
<path d="M0.0078125 13.3105H30.0078V19.9772H0.0078125V13.3105Z" fill="#6DA544"/>
<path d="M14.3475 10.0005L14.7978 8.64964C14.9147 8.30461 15.096 8.29876 15.213 8.64964L15.6632 10.0005L16.7978 11.7023C16.8972 11.8543 16.8738 12.0707 16.7276 12.1701C16.7276 12.1701 16.3241 12.6379 15.0024 12.6379C13.6808 12.6379 13.2773 12.1701 13.2773 12.1701C13.1369 12.0532 13.1077 11.8543 13.2071 11.7023L14.3475 10.0005Z" fill="black"/>
<path d="M15.0091 10.0007C14.2781 10.0007 13.6875 9.41005 13.6875 8.67906C13.6875 7.94806 14.2781 7.35742 15.0091 7.35742C15.7401 7.35742 16.3308 7.94806 16.3308 8.67906C16.3308 9.41005 15.7343 10.0007 15.0091 10.0007ZM15.0091 10.0007C15.3717 10.0007 15.67 9.04748 15.67 8.67906C15.67 8.31649 15.3717 8.01824 15.0091 8.01824C14.6466 8.01824 14.3483 8.31649 14.3483 8.67906C14.3483 9.04748 14.6407 10.0007 15.0091 10.0007Z" fill="black"/>
</g>
<defs>
<clipPath id="clip0_162_16118">
<rect x="0.0078125" width="30" height="20" rx="4" fill="white"/>
</clipPath>
</defs>
</svg>
