<svg width="30" height="20" viewBox="0 0 30 20" fill="none" xmlns="http://www.w3.org/2000/svg">
<g clip-path="url(#clip0_162_15494)">
<path d="M0.0078125 0H30.0078V20H0.0078125V0Z" fill="#E30A17"/>
<path d="M15.1987 6.93557C14.4326 6.38001 13.5028 6.08177 12.5496 6.08761C10.1636 6.08761 8.2338 7.88878 8.2338 10.1169C8.2338 12.3449 10.1695 14.1461 12.5496 14.1461C13.5496 14.1461 14.4736 13.8303 15.1987 13.2981C13.4443 15.5554 10.187 15.9648 7.92971 14.2046C5.6724 12.4443 5.26304 9.19288 7.02328 6.93557C8.78351 4.67826 12.035 4.2689 14.2923 6.02913C14.6315 6.29229 14.9356 6.60223 15.1987 6.93557ZM17.532 10.7835L16.4736 12.0642L16.5437 10.4034L14.9999 9.79522L16.5964 9.35077L16.7016 7.6958L17.6139 9.08177L19.2221 8.66656L18.1987 9.95311L19.0935 11.3508L17.532 10.7835Z" fill="white"/>
</g>
<defs>
<clipPath id="clip0_162_15494">
<rect x="0.0078125" width="30" height="20" rx="4" fill="white"/>
</clipPath>
</defs>
</svg>
