<svg width="30" height="20" viewBox="0 0 30 20" fill="none" xmlns="http://www.w3.org/2000/svg">
<g clip-path="url(#clip0_162_16948)">
<path d="M0 0H30V20H0V0Z" fill="#10338C"/>
<path d="M30 1.92982L5.5731 10L30 18.1731V19.9608L0 10L30 0V1.92982Z" fill="#D80027"/>
<path d="M30.0023 16.7937V18.2311L4.78125 9.99952L30.0023 1.75391V3.16677" fill="white"/>
<path d="M27.8973 8.19933L26.6171 8.82389L26.4312 7.92799L28.2552 6.18705C28.2552 6.18705 27.7043 3.80986 27.4511 3.55664L20.8826 6.82097L20.4826 8.97067L18.6171 10.6426L18.5938 12.6426L20.599 11.3116L24.5306 11.1561L24.4423 13.3847H25.7423L26.4382 10.7742L28.2832 9.335L27.8973 8.19933Z" fill="#A2001D"/>
<path d="M18.5896 13.942L17.2891 13.2923L18.5896 12.6426H27.0376V13.942H18.5896Z" fill="#EFC100"/>
<path fill-rule="evenodd" clip-rule="evenodd" d="M18.5857 12.6133H27.0698V13.9712H18.5857L17.2266 13.2922L18.5857 12.6133ZM18.5995 12.6718L17.3574 13.2922L18.5995 13.9127H27.0113V12.6718H18.5995Z" fill="#231F20"/>
</g>
<defs>
<clipPath id="clip0_162_16948">
<rect width="30" height="20" rx="4" fill="white"/>
</clipPath>
</defs>
</svg>
