<svg width="30" height="20" viewBox="0 0 30 20" fill="none" xmlns="http://www.w3.org/2000/svg">
<g clip-path="url(#clip0_162_16330)">
<path d="M0.0078125 0H30.0078V10.0585H0.0078125V0Z" fill="#A2001D"/>
<path d="M0.0078125 10.0586H30.0078V20.1171H0.0078125V10.0586Z" fill="#0052B4"/>
<path d="M22.3126 14.7076L15.8389 13.9006L9.35938 14.7076V4.99414H22.3126V14.7076Z" fill="white"/>
<path d="M15.8413 13.9014C17.6306 13.9014 19.0811 12.4509 19.0811 10.6616C19.0811 8.87237 17.6306 7.42188 15.8413 7.42188C14.0521 7.42188 12.6016 8.87237 12.6016 10.6616C12.6016 12.4509 14.0521 13.9014 15.8413 13.9014Z" fill="#0052B4"/>
<path d="M15.8386 12.2808C16.7333 12.2808 17.4585 11.5555 17.4585 10.6609C17.4585 9.76626 16.7333 9.04102 15.8386 9.04102C14.944 9.04102 14.2188 9.76626 14.2188 10.6609C14.2188 11.5555 14.944 12.2808 15.8386 12.2808Z" fill="#A2001D"/>
<path d="M13.4062 6.61328H18.2659L15.839 9.04018L13.4062 6.61328Z" fill="#6DA544"/>
<path d="M15.0234 8.23438H16.6433V13.0882H15.0234V8.23438Z" fill="#FFDA44"/>
<path d="M18.4237 12.6016H13.2483L9.35938 14.7068H22.3126L18.4237 12.6016Z" fill="#6DA544"/>
</g>
<defs>
<clipPath id="clip0_162_16330">
<rect x="0.0078125" width="30" height="20" rx="4" fill="white"/>
</clipPath>
</defs>
</svg>
