<svg width="30" height="20" viewBox="0 0 30 20" fill="none" xmlns="http://www.w3.org/2000/svg">
<g clip-path="url(#clip0_162_16043)">
<path d="M0 0H30V20H0V0Z" fill="#095FAD"/>
<path d="M20 0H30V20H20V0ZM0 0H10V20H0V0Z" fill="#BE1229"/>
<path d="M6.33306 9.72656H7.19856V14.0657H6.33306V9.72656ZM2.85938 9.72656H3.72487V14.0657H2.85938V9.72656Z" fill="#FFDA44"/>
<path d="M5.02956 12.7603C5.50756 12.7603 5.89506 12.3728 5.89506 11.8948C5.89506 11.4168 5.50756 11.0293 5.02956 11.0293C4.55156 11.0293 4.16406 11.4168 4.16406 11.8948C4.16406 12.3728 4.55156 12.7603 5.02956 12.7603Z" fill="#FFDA44"/>
<path d="M4.16406 13.2002H5.9009V14.0657H4.16406V13.2002ZM4.16406 9.72656H5.9009V10.5921H4.16406V9.72656Z" fill="#FFDA44"/>
<path d="M5.02956 9.28764C5.50756 9.28764 5.89506 8.90014 5.89506 8.42214C5.89506 7.94414 5.50756 7.55664 5.02956 7.55664C4.55156 7.55664 4.16406 7.94414 4.16406 8.42214C4.16406 8.90014 4.55156 9.28764 5.02956 9.28764Z" fill="#FFDA44"/>
<path d="M4.46094 7.24626H5.60129L5.02819 6.33398L4.46094 7.24626Z" fill="#FFDA44"/>
</g>
<defs>
<clipPath id="clip0_162_16043">
<rect width="30" height="20" rx="4" fill="white"/>
</clipPath>
</defs>
</svg>
