<svg width="30" height="20" viewBox="0 0 30 20" fill="none" xmlns="http://www.w3.org/2000/svg">
<g clip-path="url(#clip0_162_15398)">
<path d="M0.0078125 0H30.0078V20.0002H0.0078125V0Z" fill="#0052B4"/>
<path d="M15.0078 0V6.87457H12.3085L15.0078 8.67457V9.99979H13.682L9.38281 7.13344V9.99979H5.63281V7.13344L1.33367 9.99979H0.0078125V8.67457L2.70717 6.87457H0.0078125V3.12457H2.70717L0.0078125 1.32521V0H1.33367L5.63281 2.86564V0H9.38281V2.86564L13.682 0H15.0078Z" fill="white"/>
<path d="M8.44531 0H6.57031V4.06248H0.0078125V5.93748H6.57031V10H8.44531V5.93748H15.0078V4.06248H8.44531V0Z" fill="#D80027"/>
<path d="M0.0078125 0V0.88377L3.36975 3.12504H4.69531L0.0078125 0ZM15.0078 0V0.88377L11.6459 3.12504H10.3203L15.0078 0Z" fill="#D80027"/>
<path d="M15.004 1.32617V3.1257H12.3047L15.004 1.32617Z" fill="#2E52B2"/>
<path d="M0.0078125 0V0.88377L3.36975 3.12504H4.69531L0.0078125 0ZM15.0078 0V0.88377L11.6459 3.12504H10.3203L15.0078 0Z" fill="#D80027"/>
<path d="M15.004 1.32617V3.1257H12.3047L15.004 1.32617Z" fill="#2E52B2"/>
<path d="M0.0078125 10V9.11633L3.36975 6.875H4.69531L0.0078125 10ZM15.0078 10V9.11633L11.6459 6.875H10.3203L15.0078 10Z" fill="#D80027"/>
<path d="M22.5076 10.2168L19.8047 12.9197C20.3112 13.8967 21.3311 14.5646 22.5076 14.5646C23.684 14.5646 24.7039 13.8967 25.2104 12.9197L22.5076 10.2168Z" fill="#FFDA44"/>
<path d="M19.4609 5.43555V10.2182C19.461 12.5478 22.5044 13.2616 22.5044 13.2616C22.5044 13.2616 25.5478 12.5478 25.5479 10.2181V5.43555H19.4609Z" fill="#6DA544"/>
<path d="M21.8594 7.60742H23.1637V11.0855H21.8594V7.60742Z" fill="white"/>
<path d="M22.5115 8.26133C22.8717 8.26133 23.1637 7.96935 23.1637 7.60918C23.1637 7.24901 22.8717 6.95703 22.5115 6.95703C22.1514 6.95703 21.8594 7.24901 21.8594 7.60918C21.8594 7.96935 22.1514 8.26133 22.5115 8.26133Z" fill="#A2001D"/>
<path d="M20.3359 6.30469H21.2055V7.17422H20.3359V6.30469ZM20.3359 8.26125H21.2055V9.13078H20.3359V8.26125ZM20.3359 10.2178H21.2055V11.0873H20.3359V10.2178ZM23.814 6.30469H24.6835V7.17422H23.814V6.30469ZM23.814 8.26125H24.6835V9.13078H23.814V8.26125ZM23.814 10.2178H24.6835V11.0873H23.814V10.2178Z" fill="#FFDA44"/>
</g>
<defs>
<clipPath id="clip0_162_15398">
<rect x="0.0078125" width="30" height="20" rx="4" fill="white"/>
</clipPath>
</defs>
</svg>
