<svg width="30" height="20" viewBox="0 0 30 20" fill="none" xmlns="http://www.w3.org/2000/svg">
<g clip-path="url(#clip0_162_16768)">
<path d="M0 0H30.0029V20H0V0Z" fill="#008000"/>
<path d="M24.768 14.7903L25.1313 15.5404L25.94 15.3528L25.5767 16.1029L26.233 16.6186L25.4184 16.8061V17.6382L24.768 17.1167L24.1175 17.6382V16.8061L23.3089 16.6186L23.9593 16.1029L23.596 15.3528L24.4105 15.5404L24.768 14.7903ZM22.0373 6.80318L22.4006 7.55911L23.2092 7.37159L22.8459 8.12167L23.5022 8.63734L22.6877 8.819V9.65697L22.0373 9.13544L21.3868 9.65697L21.3927 8.819L20.5781 8.63734L21.2286 8.12167L20.8653 7.37159L21.6798 7.55911L22.0373 6.80318ZM24.2054 2.24414L24.5687 2.99421L25.3774 2.8067L25.0141 3.55677L25.6704 4.0783L24.8559 4.25996V5.09208L24.2054 4.57054L23.555 5.09208L23.5608 4.25996L22.7463 4.0783L23.3968 3.55677L23.0334 2.8067L23.848 2.99421L24.2054 2.24414ZM27.2409 5.66635L27.6042 6.41642L28.4187 6.2289L28.0496 6.97898L28.7059 7.50051L27.8913 7.68217L27.8972 8.51428L27.2409 7.99275L26.5904 8.51428L26.5963 7.68217L25.7818 7.50051L26.4381 6.97898L26.0689 6.2289L26.8834 6.41642L27.2409 5.66635ZM25.6001 9.65697L25.8872 10.5242H26.8014L26.063 11.0634L26.3443 11.9365L25.6001 11.3974L24.8617 11.9365L25.143 11.0634L24.4047 10.5242H25.3188L25.6001 9.65697Z" fill="#FFDA44"/>
<path d="M17.9821 14.9251C15.099 14.9251 12.7609 12.587 12.7609 9.70391C12.7609 6.82082 15.099 4.4827 17.9821 4.4827C18.8787 4.4827 19.7283 4.71123 20.4667 5.10971C19.3064 3.97874 17.7184 3.28141 15.9721 3.28141C12.4269 3.28141 9.54962 6.15864 9.54962 9.70391C9.54962 13.2492 12.4269 16.1323 15.9721 16.1323C17.7184 16.1323 19.3064 15.4349 20.4608 14.2981C19.7225 14.6966 18.8787 14.9251 17.9821 14.9251ZM8.23113 3.48651C7.60412 2.40241 6.43213 1.67578 5.0902 1.67578C3.74827 1.67578 2.58214 2.40241 1.95513 3.48651H8.23113ZM8.24285 3.50994L5.0902 6.6626L1.94341 3.50994C1.64455 4.03734 1.46875 4.64677 1.46875 5.30309C1.46875 7.30719 3.09196 8.9304 5.09606 8.9304C7.10016 8.9304 8.72337 7.30719 8.72337 5.30309C8.71751 4.64677 8.54171 4.03734 8.24285 3.50994Z" fill="#FFDA44"/>
<path d="M4.1875 5.75391V8.8125C4.47461 8.88867 4.7793 8.92383 5.0957 8.92383C5.41211 8.92383 5.71094 8.88281 6.00391 8.8125V5.75391H4.1875Z" fill="#A2001D"/>
</g>
<defs>
<clipPath id="clip0_162_16768">
<rect width="30.0029" height="20" rx="4" fill="white"/>
</clipPath>
</defs>
</svg>
