<svg width="30" height="20" viewBox="0 0 30 20" fill="none" xmlns="http://www.w3.org/2000/svg">
<g clip-path="url(#clip0_162_15459)">
<path d="M0 0H30.0029V20H0V0Z" fill="#232323"/>
<path d="M0 3.33398H30.0029V6.66829H0V3.33398Z" fill="#FFDA44"/>
<path d="M0 6.66797H30.0029V10.0023H0V6.66797Z" fill="#D32300"/>
<path d="M0 13.3379H30.0029V16.6722H0V13.3379Z" fill="#FFDA44"/>
<path d="M0 16.666H30.0029V20.0003H0V16.666Z" fill="#D32300"/>
<path d="M15.002 14.7305C17.6134 14.7305 19.7305 12.6134 19.7305 10.002C19.7305 7.39047 17.6134 5.27344 15.002 5.27344C12.3905 5.27344 10.2734 7.39047 10.2734 10.002C10.2734 12.6134 12.3905 14.7305 15.002 14.7305Z" fill="white"/>
<path d="M13.7439 7.4707C13.7966 7.38867 12.5954 7.35352 12.5954 7.35352C12.695 7.20703 13.6735 6.73828 13.6735 6.73828C13.6735 6.73828 13.6208 6.38672 13.8318 6.16406L13.5681 5.58984C13.5681 5.58984 13.9782 5.39062 14.6462 5.39062C15.3142 5.39062 15.8122 5.80078 15.8767 6.1582L15.5017 6.35742C15.4958 6.63281 15.6013 7.03711 15.2497 7.37109C14.904 7.70508 14.7634 7.77539 14.7517 8.47266C14.7517 8.70117 14.8864 8.95313 15.2673 9.1582C16.2868 9.70313 17.529 10.8105 17.8806 11.1445C18.238 11.4785 18.1794 12.2695 18.0329 12.6211C17.8864 12.9727 17.3239 13.459 17.195 13.418C17.0661 13.3828 17.2653 12.8789 16.99 12.7383C16.99 12.7383 16.4685 12.293 16.0056 12.7734C15.5427 13.2539 15.9939 14.25 16.2341 14.4141C16.4743 14.5781 16.3337 14.707 16.1228 14.707H14.4763C14.2536 14.707 14.1599 14.5723 14.365 14.4141C14.8103 14.1914 15.0915 13.5176 14.7985 13.2246C14.5114 12.9375 13.7263 13.3125 13.5388 13.5938C13.3747 13.7578 13.0232 13.8047 12.7829 13.5117C12.5427 13.2188 12.5427 12.9023 12.7185 12.7793C13.1286 12.498 12.7185 12.7793 12.7243 12.7734C12.7243 12.7734 13.4216 12.2695 14.4763 12.2461C14.7048 12.2461 14.7575 12.1172 14.6052 11.9648C14.6052 11.9648 12.7946 10.3594 12.9587 9.375C13.1345 8.30273 14.1306 7.83398 13.7439 7.4707C13.7439 7.4707 13.6677 7.36523 13.7439 7.4707Z" fill="black"/>
</g>
<defs>
<clipPath id="clip0_162_15459">
<rect width="30.0029" height="20" rx="4" fill="white"/>
</clipPath>
</defs>
</svg>
