<svg width="30" height="20" viewBox="0 0 30 20" fill="none" xmlns="http://www.w3.org/2000/svg">
<g clip-path="url(#clip0_162_15986)">
<path d="M0.0078125 0H30.0078V20H0.0078125V0Z" fill="#D01920"/>
<path d="M8.48438 5.2168H21.5279V14.7822H8.48438V5.2168Z" fill="#017C3B"/>
<path d="M16.6199 12.8258C15.0591 12.8258 13.7938 11.5605 13.7938 9.99973C13.7938 8.43891 15.0591 7.17363 16.6199 7.17363C17.1066 7.17363 17.5644 7.29668 17.9642 7.5133C17.3371 6.9 16.4794 6.52148 15.5329 6.52148C13.612 6.52148 12.0547 8.07873 12.0547 9.99973C12.0547 11.9207 13.612 13.478 15.5329 13.478C16.4795 13.478 17.3371 13.0994 17.9642 12.4861C17.5645 12.7028 17.1066 12.8258 16.6199 12.8258Z" fill="white"/>
</g>
<defs>
<clipPath id="clip0_162_15986">
<rect x="0.0078125" width="30" height="20" rx="4" fill="white"/>
</clipPath>
</defs>
</svg>
