<svg width="30" height="20" viewBox="0 0 30 20" fill="none" xmlns="http://www.w3.org/2000/svg">
<g clip-path="url(#clip0_162_16274)">
<path d="M0 0H29.9415V20H0V0Z" fill="white"/>
<path d="M0 0H30V6.66667H0V0Z" fill="#6DA544"/>
<path d="M0 13.3267H30V19.9934H0V13.3267ZM16.3041 7.88224C16.3099 7.9992 16.8129 9.4144 16.5614 10.1863C16.1754 11.3735 15.6374 11.4612 15.4035 11.6191V7.83546L15 7.58984L14.5965 7.83546V11.6191C14.3626 11.4612 13.8713 11.4787 13.4386 10.1863C13.1871 9.44364 13.7719 8.00505 13.7778 7.89394C13.7778 7.89394 13.2222 8.36762 12.8538 9.29745C12.5088 10.1629 12.9649 12.198 14.5789 12.5021C14.7135 12.5255 14.8538 12.8296 15 12.8296C15.1228 12.8296 15.2398 12.5255 15.3509 12.508C17.0117 12.239 17.3977 10.0694 17.0994 9.25651C16.7836 8.40271 16.3041 7.88224 16.3041 7.88224Z" fill="#D80027"/>
<g opacity="0.5">
<path opacity="0.5" d="M2.60819 5.7832H3.91228V7.2101H2.60819V5.7832ZM0 5.7832H1.30409V7.2101H0V5.7832ZM5.21637 5.7832H6.52047V7.2101H5.21637V5.7832ZM7.82456 5.7832H9.12866V7.2101H7.82456V5.7832ZM10.4327 5.7832H11.7368V7.2101H10.4327V5.7832ZM13.0409 5.7832H14.345V7.2101H13.0409V5.7832ZM15.655 5.7832H16.9591V7.2101H15.655V5.7832ZM18.2632 5.7832H19.5673V7.2101H18.2632V5.7832ZM20.8713 5.7832H22.1754V7.2101H20.8713V5.7832ZM23.4795 5.7832H24.7836V7.2101H23.4795V5.7832ZM26.0877 5.7832H27.3918V7.2101H26.0877V5.7832ZM28.6959 5.7832H30V7.2101H28.6959V5.7832ZM2.60819 12.6838H3.91228V14.175H2.60819V12.6838ZM0 12.6838H1.30409V14.175H0V12.6838ZM5.21637 12.6838H6.52047V14.175H5.21637V12.6838ZM7.82456 12.6838H9.12866V14.175H7.82456V12.6838ZM10.4327 12.6838H11.7368V14.175H10.4327V12.6838ZM13.0409 12.6838H14.345V14.175H13.0409V12.6838ZM15.655 12.6838H16.9591V14.175H15.655V12.6838ZM18.2632 12.6838H19.5673V14.175H18.2632V12.6838ZM20.8713 12.6838H22.1754V14.175H20.8713V12.6838ZM23.4795 12.6838H24.7836V14.175H23.4795V12.6838ZM26.0877 12.6838H27.3918V14.175H26.0877V12.6838ZM28.6959 12.6838H30V14.175H28.6959V12.6838Z" fill="white"/>
</g>
</g>
<defs>
<clipPath id="clip0_162_16274">
<rect width="30" height="20" rx="4" fill="white"/>
</clipPath>
</defs>
</svg>
