<svg width="30" height="20" viewBox="0 0 30 20" fill="none" xmlns="http://www.w3.org/2000/svg">
<g clip-path="url(#clip0_162_15625)">
<path d="M0.0078125 0H30.0078V19.9996H0.0078125V0Z" fill="white"/>
<path d="M0.0078125 0H30.0078V6.6665H0.0078125V0ZM0.0078125 13.3331H30.0078V19.9996H0.0078125V13.3331Z" fill="#0052B4"/>
<path d="M13.3984 10.347L15.005 7.56445L16.6115 10.347H13.3984Z" fill="#FFDA44"/>
<path d="M17.0956 11.2662L15.0087 12.3097L12.9219 11.2662V9.875H17.0956V11.2662Z" fill="#6DA544"/>
<path d="M16.9766 7.68555L16.2388 8.42336C16.5535 8.73812 16.7482 9.17283 16.7482 9.65313C16.7482 10.6136 15.9695 11.3922 15.0091 11.3922C14.0487 11.3922 13.2701 10.6135 13.2701 9.65313C13.2701 9.17295 13.4647 8.73812 13.7794 8.42336L13.0416 7.68555C12.538 8.1891 12.2266 8.88473 12.2266 9.65307C12.2266 11.1899 13.4723 12.4356 15.0091 12.4356C16.5459 12.4356 17.7917 11.1899 17.7917 9.65307C17.7917 8.88467 17.4802 8.18898 16.9766 7.68555Z" fill="#FFDA44"/>
</g>
<defs>
<clipPath id="clip0_162_15625">
<rect x="0.0078125" width="30" height="20" rx="4" fill="white"/>
</clipPath>
</defs>
</svg>
