<svg width="30" height="20" viewBox="0 0 30 20" fill="none" xmlns="http://www.w3.org/2000/svg">
<g clip-path="url(#clip0_162_16138)">
<path d="M0.0078125 0H30.0078V20H0.0078125V0Z" fill="#D80027"/>
<path d="M0.0078125 0H30.0078V10H0.0078125V0Z" fill="#0052B4"/>
<path d="M8.73844 5.7374C8.73844 4.91869 8.07762 4.25787 7.25891 4.25787C6.87879 4.25787 6.53376 4.39822 6.2706 4.63214V3.76664H6.76183V2.77834H6.2706V2.28711H5.28815V2.77834H4.79692V3.76664H5.28815V4.63799C5.02499 4.40407 4.67996 4.26372 4.29984 4.26372C3.48113 4.26372 2.82031 4.92454 2.82031 5.74325C2.82031 6.18185 3.0133 6.57366 3.31154 6.84267V7.71401H8.24137V6.84267C8.55131 6.56781 8.73844 6.17015 8.73844 5.7374Z" fill="#FFDA44"/>
</g>
<defs>
<clipPath id="clip0_162_16138">
<rect x="0.0078125" width="30" height="20" rx="4" fill="white"/>
</clipPath>
</defs>
</svg>
