<svg width="30" height="20" viewBox="0 0 30 20" fill="none" xmlns="http://www.w3.org/2000/svg">
<g clip-path="url(#clip0_162_16400)">
<path d="M0 0H30.0029V20H0V0Z" fill="#0052B4"/>
<path d="M15.0015 0V6.87958H12.3L15.0015 8.67858V10.0029H13.6771L9.37592 7.13742V10.0029H5.62555V7.13742L1.32435 10.0029H0V8.67858L2.70144 6.87958H0V3.12921H2.70144L0 1.33021V0H1.32435L5.62555 2.86551V0H9.37592V2.86551L13.6771 0H15.0015Z" fill="white"/>
<path d="M8.43832 0H6.56314V4.0668H0V5.94199H6.56314V10.0029H8.43832V5.94199H15.0015V4.0668H8.43832V0Z" fill="#D80027"/>
<path d="M14.998 1.33008V3.12891H12.2969L14.998 1.33008Z" fill="#2E52B2"/>
<path d="M0 10.0029V9.35834L3.66247 6.87958H4.98682L0.427776 10.0029H0ZM0.427776 0.00585938L4.98682 3.12335H3.66247L0 0.650454V0.00585938H0.427776ZM15.0015 0.00585938V0.650454L11.339 3.12921H10.0147L14.5737 0.00585938H15.0015ZM14.5737 10.0029L10.0147 6.87958H11.339L15.0015 9.35834V10.0029H14.5737Z" fill="#D80027"/>
<path d="M25.9805 16.2363C26.9189 16.2363 27.6797 15.0952 27.6797 13.6875C27.6797 12.2798 26.9189 11.1387 25.9805 11.1387C25.042 11.1387 24.2812 12.2798 24.2812 13.6875C24.2812 15.0952 25.042 16.2363 25.9805 16.2363Z" fill="white"/>
<path d="M23.8438 19.1621C24.5557 19.1621 25.1328 18.9181 25.1328 18.6172C25.1328 18.3162 24.5557 18.0723 23.8438 18.0723C23.1318 18.0723 22.5547 18.3162 22.5547 18.6172C22.5547 18.9181 23.1318 19.1621 23.8438 19.1621Z" fill="#FFCE00"/>
<path d="M21.3281 19.1621C22.0401 19.1621 22.6172 18.9181 22.6172 18.6172C22.6172 18.3162 22.0401 18.0723 21.3281 18.0723C20.6162 18.0723 20.0391 18.3162 20.0391 18.6172C20.0391 18.9181 20.6162 19.1621 21.3281 19.1621Z" fill="#FFCE00"/>
<path d="M20.0391 11.1387L22.582 16.2305L25.1309 11.1387H20.0391Z" fill="#39B200"/>
<path d="M19.1914 16.2363C20.1299 16.2363 20.8906 15.0952 20.8906 13.6875C20.8906 12.2798 20.1299 11.1387 19.1914 11.1387C18.253 11.1387 17.4922 12.2798 17.4922 13.6875C17.4922 15.0952 18.253 16.2363 19.1914 16.2363Z" fill="#9B9B9B"/>
<path d="M21.7383 10.2891L20.8887 11.1387H24.2812L23.4316 10.2891L24.2812 7.74023C24.2812 7.74023 23.5195 6.04102 22.582 6.04102C21.6445 6.04102 20.8828 7.74023 20.8828 7.74023L21.7383 10.2891Z" fill="#757575"/>
<path d="M22.582 5.625C23.5205 5.625 24.2812 4.86423 24.2812 3.92578C24.2812 2.98733 23.5205 2.22656 22.582 2.22656C21.6436 2.22656 20.8828 2.98733 20.8828 3.92578C20.8828 4.86423 21.6436 5.625 22.582 5.625Z" fill="#C6B56F"/>
<path d="M22.6211 6.89648C23.5595 6.89648 24.3203 6.13572 24.3203 5.19727C24.3203 4.25881 23.5595 3.49805 22.6211 3.49805C21.6826 3.49805 20.9219 4.25881 20.9219 5.19727C20.9219 6.13572 21.6826 6.89648 22.6211 6.89648Z" fill="#A54A00"/>
<path d="M25.9805 8.5957C26.9189 8.5957 27.6797 7.83494 27.6797 6.89648C27.6797 5.95803 26.9189 5.19727 25.9805 5.19727C25.042 5.19727 24.2812 5.95803 24.2812 6.89648C24.2812 7.83494 25.042 8.5957 25.9805 8.5957Z" fill="white"/>
<path d="M20.0508 10.2949C20.9892 10.2949 21.75 9.53416 21.75 8.5957C21.75 7.65725 20.9892 6.89648 20.0508 6.89648C19.1123 6.89648 18.3516 7.65725 18.3516 8.5957C18.3516 9.53416 19.1123 10.2949 20.0508 10.2949Z" fill="#0049FF"/>
<path d="M25.1836 10.2949C26.122 10.2949 26.8828 9.53416 26.8828 8.5957C26.8828 7.65725 26.122 6.89648 25.1836 6.89648C24.2451 6.89648 23.4844 7.65725 23.4844 8.5957C23.4844 9.53416 24.2451 10.2949 25.1836 10.2949Z" fill="#0041F9"/>
<path d="M22.6211 15.3867C23.5595 15.3867 24.3203 14.626 24.3203 13.6875C24.3203 12.749 23.5595 11.9883 22.6211 11.9883C21.6826 11.9883 20.9219 12.749 20.9219 13.6875C20.9219 14.626 21.6826 15.3867 22.6211 15.3867Z" fill="#F7D71E"/>
<path d="M26.832 12.8379C27.7705 12.8379 28.5312 12.0771 28.5312 11.1387C28.5312 10.2002 27.7705 9.43945 26.832 9.43945C25.8936 9.43945 25.1328 10.2002 25.1328 11.1387C25.1328 12.0771 25.8936 12.8379 26.832 12.8379Z" fill="#CEC851"/>
<path d="M22.582 18.6641C23.5205 18.6641 24.2812 17.9033 24.2812 16.9648C24.2812 16.0264 23.5205 15.2656 22.582 15.2656C21.6436 15.2656 20.8828 16.0264 20.8828 16.9648C20.8828 17.9033 21.6436 18.6641 22.582 18.6641Z" fill="white"/>
<path d="M21.7422 7.95117L22.5918 7.74609L23.4414 7.95117C23.4414 8.39062 22.5918 8.5957 22.5918 8.5957C22.5918 8.5957 21.7422 8.39062 21.7422 7.95117Z" fill="#7C0B29"/>
<path d="M19.1914 8.57812C20.1299 8.57812 20.8906 7.81736 20.8906 6.87891C20.8906 5.94045 20.1299 5.17969 19.1914 5.17969C18.253 5.17969 17.4922 5.94045 17.4922 6.87891C17.4922 7.81736 18.253 8.57812 19.1914 8.57812Z" fill="white"/>
</g>
<defs>
<clipPath id="clip0_162_16400">
<rect width="30.0029" height="20" rx="4" fill="white"/>
</clipPath>
</defs>
</svg>
