<svg width="30" height="20" viewBox="0 0 30 20" fill="none" xmlns="http://www.w3.org/2000/svg">
<g clip-path="url(#clip0_162_15431)">
<path d="M0.0078125 0H30.0078V19.9996H0.0078125V0Z" fill="#D80027"/>
<path d="M0.0078125 13.9141H30.0078V20.0008H0.0078125V13.9141Z" fill="#6DA544"/>
<path d="M0.0078125 0H30.0078V6.12393H0.0078125V0Z" fill="#338AF3"/>
<path d="M0.0078125 7.35547H30.0078V12.6087H0.0078125V7.35547Z" fill="white"/>
<path d="M0.0078125 0H30.0078V6.12393H0.0078125V0Z" fill="#338AF3"/>
<path d="M11.065 3.06197C11.065 2.12541 11.7233 1.34289 12.6023 1.151C12.4646 1.12082 12.324 1.10556 12.1831 1.10547C11.1025 1.10547 10.2266 1.98139 10.2266 3.06197C10.2266 4.14256 11.1025 5.01848 12.1831 5.01848C12.3271 5.01848 12.4672 5.00248 12.6023 4.97295C11.7233 4.78105 11.065 3.99854 11.065 3.06197ZM13.7586 3.95125L13.8911 4.35889H14.3197L13.9729 4.6109L14.1054 5.01848L13.7586 4.76652L13.4118 5.01848L13.5443 4.6109L13.1976 4.35889H13.6262L13.7586 3.95125ZM15.1266 3.95125L15.2591 4.35889H15.6877L15.3409 4.6109L15.4734 5.01848L15.1266 4.76652L14.7799 5.01848L14.9123 4.6109L14.5656 4.35889H14.9942L15.1266 3.95125ZM16.4946 3.95125L16.6271 4.35889H17.0557L16.709 4.6109L16.8414 5.01848L16.4946 4.76652L16.1479 5.01848L16.2803 4.6109L15.9335 4.35889H16.3621L16.4946 3.95125ZM17.8626 3.95125L17.9952 4.35889H18.4238L18.077 4.6109L18.2094 5.01848L17.8626 4.76652L17.5159 5.01848L17.6484 4.6109L17.3016 4.35889H17.7301L17.8626 3.95125ZM19.2307 3.95125L19.3631 4.35889H19.7917L19.4449 4.6109L19.5774 5.01848L19.2307 4.76652L18.8839 5.01848L19.0163 4.6109L18.6696 4.35889H19.0982L19.2307 3.95125ZM15.1266 2.52836L15.2591 2.93594H15.6877L15.3409 3.18789L15.4734 3.59553L15.1266 3.34363L14.7799 3.59553L14.9123 3.18789L14.5656 2.93594H14.9942L15.1266 2.52836ZM16.4946 2.52836L16.6271 2.93594H17.0557L16.709 3.18789L16.8414 3.59553L16.4946 3.34363L16.1479 3.59553L16.2803 3.18789L15.9335 2.93594H16.3621L16.4946 2.52836ZM17.8626 2.52836L17.9952 2.93594H18.4238L18.077 3.18789L18.2094 3.59553L17.8626 3.34363L17.5159 3.59553L17.6484 3.18789L17.3016 2.93594H17.7301L17.8626 2.52836ZM19.2307 2.52836L19.3631 2.93594H19.7917L19.4449 3.18789L19.5774 3.59553L19.2307 3.34363L18.8839 3.59553L19.0163 3.18789L18.6696 2.93594H19.0982L19.2307 2.52836ZM16.4946 1.10547L16.6271 1.51305H17.0557L16.709 1.765L16.8414 2.17264L16.4946 1.92068L16.1479 2.17264L16.2803 1.765L15.9335 1.51305H16.3621L16.4946 1.10547ZM17.8626 1.10547L17.9952 1.51305H18.4238L18.077 1.765L18.2094 2.17264L17.8626 1.92068L17.5159 2.17264L17.6484 1.765L17.3016 1.51305H17.7301L17.8626 1.10547ZM19.2307 1.10547L19.3631 1.51305H19.7917L19.4449 1.765L19.5774 2.17264L19.2307 1.92068L18.8839 2.17264L19.0163 1.765L18.6696 1.51305H19.0982L19.2307 1.10547Z" fill="white"/>
</g>
<defs>
<clipPath id="clip0_162_15431">
<rect x="0.0078125" width="30" height="20" rx="4" fill="white"/>
</clipPath>
</defs>
</svg>
