<svg width="30" height="20" viewBox="0 0 30 20" fill="none" xmlns="http://www.w3.org/2000/svg">
<g clip-path="url(#clip0_162_15481)">
<path d="M0 0H30V20H0V0Z" fill="#0052B4"/>
<path d="M0 10H15V0H30V20H0V10Z" fill="#00B2EE"/>
<path d="M11.5119 16.0294L12.4919 19.0494L9.92188 17.1828H13.1019L10.5319 19.0494L11.5119 16.0294ZM23.5485 11.3328L24.5285 14.3528L21.9585 12.4861H25.1352L22.5652 14.3528L23.5485 11.3328ZM27.0952 8.71609L28.0752 11.7361L25.5052 9.86943H28.6819L26.1119 11.7361L27.0952 8.71609ZM27.0952 1.24609L28.0752 4.26609L25.5052 2.39943H28.6819L26.1119 4.26609L27.0952 1.24609Z" fill="#FFDA44"/>
<path d="M14.9967 0V6.87667H12.2967L14.9967 8.67667V10H13.6733L9.37333 7.13667V10H5.62333V7.13667L1.32333 10H0V8.67667L2.7 6.87667H0V3.12667H2.7L0 1.33V0H1.32333L5.62333 2.86333V0H9.37333V2.86333L13.6733 0H14.9967Z" fill="white"/>
<path d="M8.43667 0H6.56V4.06667H0V5.94H6.56V10H8.43667V5.94H14.9967V4.06667H8.43667V0Z" fill="#D80027"/>
<path d="M14.9969 1.33008V3.12674H12.2969L14.9969 1.33008Z" fill="#2E52B2"/>
<path d="M0 10.0006V9.35724L3.66333 6.87724H4.98667L0.426667 10.0006H0ZM0.426667 0.00390625L4.98667 3.12724H3.66333L0 0.647239V0.00390625H0.426667ZM14.9967 0.00723958V0.650573L11.3333 3.12724H10.01L14.57 0.00723958H14.9967ZM14.57 10.0006L10.01 6.87724H11.3333L14.9967 9.35724V10.0006H14.57Z" fill="#D80027"/>
<path d="M23.9997 4.38672L24.9797 7.40672L22.4097 5.54005H25.5864L23.0164 7.40672L23.9997 4.38672ZM19.4697 6.25672L20.4497 9.27672L17.8797 7.41005H21.0564L18.4864 9.27672L19.4697 6.25672ZM20.4697 14.3534L21.4497 17.3734L18.8797 15.5067H22.0564L19.4864 17.3734L20.4697 14.3534ZM16.2697 11.0667L17.2497 14.0867L14.6797 12.2201H17.8564L15.2864 14.0867L16.2697 11.0667ZM16.2697 15.4667L17.2497 18.4867L14.6797 16.6201H17.8564L15.2864 18.4867L16.2697 15.4667Z" fill="#FFDA44"/>
</g>
<defs>
<clipPath id="clip0_162_15481">
<rect width="30" height="20" rx="4" fill="white"/>
</clipPath>
</defs>
</svg>
