<svg width="30" height="20" viewBox="0 0 30 20" fill="none" xmlns="http://www.w3.org/2000/svg">
<g clip-path="url(#clip0_162_16036)">
<path d="M0 0H30V20.0002H0V0Z" fill="#00745A"/>
<path d="M16.7383 9.58332C16.4928 9.58332 16.2598 9.63231 16.0433 9.71012C16.1619 9.44592 16.2413 9.15189 16.2413 8.83795C16.2413 7.5957 14.9991 6.66406 14.9991 6.66406C14.9991 6.66406 13.7568 7.59576 13.7568 8.83795C13.7568 9.15184 13.8363 9.44586 13.9548 9.71012C13.7384 9.63231 13.5053 9.58332 13.2598 9.58332C12.0176 9.58332 11.0859 10.8256 11.0859 10.8256C11.0859 10.8256 12.0176 12.0678 13.2598 12.0678C13.9881 12.0678 14.6093 11.6409 14.999 11.2876C15.3887 11.641 16.0098 12.0678 16.7382 12.0678C17.9804 12.0678 18.9121 10.8256 18.9121 10.8256C18.9121 10.8256 17.9805 9.58332 16.7383 9.58332Z" fill="white"/>
<path d="M15.0003 3.91211L15.2569 4.70172H16.0872L15.4155 5.18992L15.6719 5.97953L15.0003 5.49145L14.3286 5.97953L14.585 5.18992L13.9133 4.70172H14.7436L15.0003 3.91211ZM11.8428 5.29328L12.3364 5.73772L12.9117 5.40566L12.6416 6.0124L13.1351 6.45701L12.4745 6.38758L12.2044 6.99432L12.0662 6.34463L11.4055 6.2752L11.9808 5.94303L11.8428 5.29328ZM9.53125 7.60475L10.1811 7.74291L10.5132 7.16764L10.5827 7.82822L11.2324 7.96639L10.6255 8.2365L10.695 8.89709L10.2505 8.40355L9.64363 8.67367L9.9758 8.0984L9.53125 7.60475ZM18.1578 5.29328L17.6642 5.73772L17.0889 5.40566L17.3591 6.0124L16.8654 6.45701L17.5261 6.38758L17.7962 6.99432L17.9344 6.34463L18.5951 6.2752L18.0198 5.94303L18.1578 5.29328ZM20.4693 7.60475L19.8196 7.74291L19.4874 7.16764L19.4179 7.82822L18.7682 7.96639L19.3751 8.2365L19.3056 8.89709L19.7501 8.40355L20.357 8.67367L20.0248 8.0984L20.4693 7.60475Z" fill="#FFDA44"/>
<path d="M15.0013 15.5462C15.9881 15.5462 16.8976 15.217 17.6273 14.663H12.3755C13.1051 15.217 14.0146 15.5462 15.0013 15.5462ZM11.0156 12.9375C11.153 13.2513 11.3271 13.5478 11.5342 13.8207H18.4685C18.6755 13.5478 18.8496 13.2513 18.987 12.9375H11.0156Z" fill="white"/>
</g>
<defs>
<clipPath id="clip0_162_16036">
<rect width="30" height="20" rx="4" fill="white"/>
</clipPath>
</defs>
</svg>
