<svg width="30" height="20" viewBox="0 0 30 20" fill="none" xmlns="http://www.w3.org/2000/svg">
<g clip-path="url(#clip0_162_16593)">
<path d="M0.0078125 0H30.0107V20H0.0078125V0Z" fill="#338AF3"/>
<path d="M0.0078125 0H30.0107V10.0029H0.0078125V0Z" fill="#56AF35"/>
<path d="M0.0078125 20L30.0107 9.99707L0.0078125 0V20Z" fill="#D80027"/>
<path d="M7.89844 13.5645C9.86719 13.5645 11.4609 11.9707 11.4609 10.002C11.4609 8.0332 9.86719 6.43945 7.89844 6.43945C5.92969 6.43945 4.33594 8.0332 4.33594 10.002C4.33594 11.9707 5.92969 13.5645 7.89844 13.5645ZM7.89844 14.9883C5.14453 14.9883 2.90625 12.7559 2.90625 9.99609C2.90625 7.23633 5.13867 5.00391 7.89844 5.00391C10.6582 5.00391 12.8906 7.23633 12.8906 9.99609C12.8906 12.7559 10.6523 14.9883 7.89844 14.9883Z" fill="#FFC945"/>
<path d="M7.00977 9.71484C7.57607 9.71484 8.03516 9.25576 8.03516 8.68945C8.03516 8.12315 7.57607 7.66406 7.00977 7.66406C6.44346 7.66406 5.98438 8.12315 5.98438 8.68945C5.98438 9.25576 6.44346 9.71484 7.00977 9.71484Z" fill="#FFC945"/>
<path d="M8.72852 10.3125C9.29482 10.3125 9.75391 9.85342 9.75391 9.28711C9.75391 8.7208 9.29482 8.26172 8.72852 8.26172C8.16221 8.26172 7.70312 8.7208 7.70312 9.28711C7.70312 9.85342 8.16221 10.3125 8.72852 10.3125Z" fill="#FFC945"/>
<path d="M7.90039 8.94727C8.4667 8.94727 8.92578 8.48818 8.92578 7.92188C8.92578 7.35557 8.4667 6.89648 7.90039 6.89648C7.33408 6.89648 6.875 7.35557 6.875 7.92188C6.875 8.48818 7.33408 8.94727 7.90039 8.94727Z" fill="#FFC945"/>
<path d="M7.00977 11.1445C7.57607 11.1445 8.03516 10.6854 8.03516 10.1191C8.03516 9.55283 7.57607 9.09375 7.00977 9.09375C6.44346 9.09375 5.98438 9.55283 5.98438 10.1191C5.98438 10.6854 6.44346 11.1445 7.00977 11.1445Z" fill="#FFC945"/>
<path d="M8.79102 11.7363C9.35732 11.7363 9.81641 11.2772 9.81641 10.7109C9.81641 10.1446 9.35732 9.68555 8.79102 9.68555C8.22471 9.68555 7.76562 10.1446 7.76562 10.7109C7.76562 11.2772 8.22471 11.7363 8.79102 11.7363Z" fill="#FFC945"/>
<path d="M7.18164 12.627C7.74795 12.627 8.20703 12.1679 8.20703 11.6016C8.20703 11.0353 7.74795 10.5762 7.18164 10.5762C6.61533 10.5762 6.15625 11.0353 6.15625 11.6016C6.15625 12.1679 6.61533 12.627 7.18164 12.627Z" fill="#FFC945"/>
<path d="M8.55664 13.0488C9.12295 13.0488 9.58203 12.5897 9.58203 12.0234C9.58203 11.4571 9.12295 10.998 8.55664 10.998C7.99033 10.998 7.53125 11.4571 7.53125 12.0234C7.53125 12.5897 7.99033 13.0488 8.55664 13.0488Z" fill="#FFC945"/>
</g>
<defs>
<clipPath id="clip0_162_16593">
<rect x="0.0078125" width="30.0029" height="20" rx="4" fill="white"/>
</clipPath>
</defs>
</svg>
