<svg width="30" height="20" viewBox="0 0 30 20" fill="none" xmlns="http://www.w3.org/2000/svg">
<g clip-path="url(#clip0_162_15878)">
<path d="M0 0H30V20.0002H0V0Z" fill="#FFDA44"/>
<path d="M0 0H15V9.99979H0V0Z" fill="white"/>
<path d="M8.4375 0H6.5625V4.06248H0V5.93748H6.5625V10H8.4375V5.93748H15V4.06248H8.4375V0Z" fill="#D80027"/>
<path d="M0 0V0.88377L3.36193 3.12504H4.6875L0 0Z" fill="#D80027"/>
<path d="M0 1.32539V3.12492H2.69936L0 1.32539ZM5.625 0V2.866L1.32586 0H5.625Z" fill="#2E52B2"/>
<path d="M15 0V0.88377L11.6381 3.12504H10.3125L15 0Z" fill="#D80027"/>
<path d="M15 1.32539V3.12492H12.3006L15 1.32539ZM9.375 0V2.866L13.6741 0H9.375Z" fill="#2E52B2"/>
<path d="M0 0V0.88377L3.36193 3.12504H4.6875L0 0Z" fill="#D80027"/>
<path d="M0 1.32539V3.12492H2.69936L0 1.32539ZM5.625 0V2.866L1.32586 0H5.625Z" fill="#2E52B2"/>
<path d="M15 0V0.88377L11.6381 3.12504H10.3125L15 0Z" fill="#D80027"/>
<path d="M15 1.32539V3.12492H12.3006L15 1.32539ZM9.375 0V2.866L13.6741 0H9.375Z" fill="#2E52B2"/>
<path d="M0 10V9.11633L3.36193 6.875H4.6875L0 10Z" fill="#D80027"/>
<path d="M0 8.67459V6.875H2.69936L0 8.67459ZM5.625 9.99986V7.13393L1.32586 9.99986H5.625Z" fill="#2E52B2"/>
<path d="M15 10V9.11633L11.6381 6.875H10.3125L15 10Z" fill="#D80027"/>
<path d="M15 8.67459V6.875H12.3006L15 8.67459ZM9.375 9.99986V7.13393L13.6741 9.99986H9.375Z" fill="#2E52B2"/>
<path d="M7.49768 6.32543C8.2299 6.32543 8.82348 5.73185 8.82348 4.99963C8.82348 4.26741 8.2299 3.67383 7.49768 3.67383C6.76546 3.67383 6.17188 4.26741 6.17188 4.99963C6.17188 5.73185 6.76546 6.32543 7.49768 6.32543Z" fill="#2E52B2"/>
<path d="M7.49701 4.06215L7.72963 4.77828H8.48279L7.87353 5.22102L8.10621 5.93715L7.49701 5.49453L6.88775 5.93715L7.12049 5.22102L6.51123 4.77828H7.26434L7.49701 4.06215ZM7.49701 7.87895L7.63553 8.30539H8.08394L7.72125 8.56894L7.85976 8.99539L7.49701 8.73184L7.13426 8.99539L7.27277 8.56894L6.91008 8.30539H7.35844L7.49701 7.87895ZM7.49701 1.00391L7.63553 1.43035H8.08394L7.72125 1.69391L7.85976 2.12035L7.49701 1.8568L7.13426 2.12035L7.27277 1.69391L6.91008 1.43035H7.35844L7.49701 1.00391ZM11.5945 4.44143L11.7331 4.86781H12.1815L11.8187 5.13143L11.9573 5.55793L11.5945 5.29437L11.2318 5.55793L11.3704 5.13143L11.0076 4.86781H11.456L11.5945 4.44143ZM3.39949 4.44143L3.53801 4.86781H3.98643L3.62367 5.13143L3.76219 5.55793L3.39949 5.29437L3.03674 5.55793L3.17531 5.13143L2.8125 4.86781H3.26092L3.39949 4.44143Z" fill="#FFDA44"/>
</g>
<defs>
<clipPath id="clip0_162_15878">
<rect width="30" height="20" rx="4" fill="white"/>
</clipPath>
</defs>
</svg>
