<svg width="30" height="20" viewBox="0 0 30 20" fill="none" xmlns="http://www.w3.org/2000/svg">
<g clip-path="url(#clip0_162_16578)">
<path d="M0 0H30V6.66667H0V0Z" fill="#20AA46"/>
<path d="M0 13.334H30V20.0007H0V13.334Z" fill="#E92F3B"/>
<path d="M0 6.66602H30V13.3327H0V6.66602Z" fill="#FADF50"/>
<path d="M15.0661 16.9331C18.8953 16.9331 21.9995 13.8289 21.9995 9.99974C21.9995 6.17056 18.8953 3.06641 15.0661 3.06641C11.237 3.06641 8.13281 6.17056 8.13281 9.99974C8.13281 13.8289 11.237 16.9331 15.0661 16.9331Z" fill="#205CCA"/>
<path fill-rule="evenodd" clip-rule="evenodd" d="M15.0641 4.45117L16.3677 8.19915H20.6376L17.1915 10.6606L18.5044 14.5995L15.0641 12.1421L11.6237 14.5995L12.9385 10.655L9.66406 8.19915H13.7571L13.8145 8.02708L13.8197 8.0288L15.0641 4.45117ZM13.5349 8.86582L13.1607 9.98834L11.6641 8.86582H13.5349ZM13.507 11.0578L12.9044 12.8654L14.4353 11.772L13.507 11.0578ZM15.6389 11.7335L17.2237 12.8654L16.6212 11.0581L15.6389 11.7335ZM17.0164 9.96643L18.5572 8.86582H16.5884L17.0164 9.96643ZM15.6619 8.19915L15.0641 6.48047L14.4663 8.19915H15.6619ZM14.2376 8.86582L13.7301 10.3884L14.9989 11.3644L16.4554 10.3631L15.8731 8.86582H14.2376Z" fill="#FFDB3D"/>
<path fill-rule="evenodd" clip-rule="evenodd" d="M16.9253 7.11185L18.2587 4.97852L18.5413 5.15518L17.208 7.28852L16.9253 7.11185ZM12.9293 7.42794L11.4627 5.2946L11.7373 5.10576L13.204 7.23909L12.9293 7.42794ZM9.40625 11.8448L11.8062 10.9115L11.9271 11.2222L9.52707 12.1555L9.40625 11.8448ZM18.3271 10.9115L20.7271 11.8448L20.6062 12.1555L18.2063 11.2222L18.3271 10.9115ZM14.9 16.0002V13.4668H15.2333V16.0002H14.9Z" fill="#FFDB3D"/>
</g>
<defs>
<clipPath id="clip0_162_16578">
<rect width="30" height="20" rx="4" fill="white"/>
</clipPath>
</defs>
</svg>
